<?xml version="1.0" encoding="UTF-8" standalone="no"?>
<svg width="172.773mm" height="117.74mm"
 viewBox="0 0 653 445"
 xmlns="http://www.w3.org/2000/svg" xmlns:xlink="http://www.w3.org/1999/xlink"  version="1.2" baseProfile="tiny">
<title>Graph2</title>
<desc>Generated with Qt</desc>
<defs>
</defs>
<g fill="none" stroke="black" stroke-width="1" fill-rule="evenodd" stroke-linecap="square" stroke-linejoin="bevel" >

<g fill="#ffffff" fill-opacity="1" stroke="none" transform="matrix(1,0,0,1,0,0)"
font-family=".AppleSystemUIFont" font-size="17.3333" font-weight="400" font-style="normal" 
>
<rect x="0" y="0" width="653" height="445"/>
</g>

<g fill="none" stroke="#000000" stroke-opacity="1" stroke-width="1" stroke-linecap="square" stroke-linejoin="bevel" transform="matrix(1,0,0,1,0,0)"
font-family=".AppleSystemUIFont" font-size="17.3333" font-weight="400" font-style="normal" 
>
</g>

<g fill="#ffffff" fill-opacity="1" stroke="none" transform="matrix(1,0,0,1,0,0)"
font-family=".AppleSystemUIFont" font-size="17.3333" font-weight="400" font-style="normal" 
>
<rect x="5" y="5" width="643" height="435"/>
</g>

<g fill="none" stroke="#000000" stroke-opacity="1" stroke-width="1" stroke-linecap="square" stroke-linejoin="bevel" transform="matrix(1,0,0,1,0,0)"
font-family=".AppleSystemUIFont" font-size="17.3333" font-weight="400" font-style="normal" 
>
</g>

<g fill="none" stroke="#000000" stroke-opacity="1" stroke-width="1" stroke-linecap="square" stroke-linejoin="bevel" transform="matrix(1,0,0,1,0,0)"
font-family=".AppleSystemUIFont" font-size="17.3333" font-weight="400" font-style="normal" 
>
</g>

<g fill="none" stroke="#000000" stroke-opacity="0.847059" stroke-width="1" stroke-linecap="square" stroke-linejoin="bevel" transform="matrix(0,-1,1,0,5,379)"
font-family=".AppleSystemUIFont" font-size="22.6667" font-weight="400" font-style="normal" 
>
</g>

<g fill="none" stroke="#000000" stroke-opacity="1" stroke-width="1" stroke-linecap="square" stroke-linejoin="bevel" transform="matrix(0,-1,1,0,5,379)"
font-family=".AppleSystemUIFont" font-size="22.6667" font-weight="700" font-style="normal" 
>
<text fill="#000000" fill-opacity="1" stroke="none" xml:space="preserve" x="150" y="22.2344" font-family=".AppleSystemUIFont" font-size="22.6667" font-weight="700" font-style="normal" 
 >P (atm)</text>
</g>

<g fill="none" stroke="#000000" stroke-opacity="0.847059" stroke-width="1" stroke-linecap="square" stroke-linejoin="bevel" transform="matrix(0,-1,1,0,5,379)"
font-family=".AppleSystemUIFont" font-size="22.6667" font-weight="400" font-style="normal" 
>
</g>

<g fill="none" stroke="#000000" stroke-opacity="1" stroke-width="1" stroke-linecap="square" stroke-linejoin="bevel" transform="matrix(1,0,0,1,0,0)"
font-family=".AppleSystemUIFont" font-size="17.3333" font-weight="400" font-style="normal" 
>
</g>

<g fill="none" stroke="#000000" stroke-opacity="1" stroke-width="1" stroke-linecap="square" stroke-linejoin="bevel" transform="matrix(1,0,0,1,0,0)"
font-family=".AppleSystemUIFont" font-size="22.6667" font-weight="400" font-style="normal" 
>
</g>

<g fill="none" stroke="#000000" stroke-opacity="0.847059" stroke-width="1" stroke-linecap="square" stroke-linejoin="bevel" transform="matrix(1,0,0,1,0,0)"
font-family=".AppleSystemUIFont" font-size="22.6667" font-weight="400" font-style="normal" 
>
</g>

<g fill="none" stroke="#000000" stroke-opacity="0.847059" stroke-width="1" stroke-linecap="square" stroke-linejoin="bevel" transform="matrix(1,0,0,1,34,359)"
font-family=".AppleSystemUIFont" font-size="22.6667" font-weight="400" font-style="normal" 
>
<text fill="#000000" fill-opacity="0.847059" stroke="none" xml:space="preserve" x="0" y="20.2344" font-family=".AppleSystemUIFont" font-size="22.6667" font-weight="400" font-style="normal" 
 >0.5</text>
</g>

<g fill="none" stroke="#000000" stroke-opacity="0.847059" stroke-width="1" stroke-linecap="square" stroke-linejoin="bevel" transform="matrix(1,0,0,1,34,359)"
font-family=".AppleSystemUIFont" font-size="22.6667" font-weight="400" font-style="normal" 
>
</g>

<g fill="none" stroke="#000000" stroke-opacity="0.847059" stroke-width="1" stroke-linecap="square" stroke-linejoin="bevel" transform="matrix(1,0,0,1,0,0)"
font-family=".AppleSystemUIFont" font-size="22.6667" font-weight="400" font-style="normal" 
>
</g>

<g fill="none" stroke="#000000" stroke-opacity="0.847059" stroke-width="1" stroke-linecap="square" stroke-linejoin="bevel" transform="matrix(1,0,0,1,55,309)"
font-family=".AppleSystemUIFont" font-size="22.6667" font-weight="400" font-style="normal" 
>
<text fill="#000000" fill-opacity="0.847059" stroke="none" xml:space="preserve" x="0" y="20.2344" font-family=".AppleSystemUIFont" font-size="22.6667" font-weight="400" font-style="normal" 
 >1</text>
</g>

<g fill="none" stroke="#000000" stroke-opacity="0.847059" stroke-width="1" stroke-linecap="square" stroke-linejoin="bevel" transform="matrix(1,0,0,1,55,309)"
font-family=".AppleSystemUIFont" font-size="22.6667" font-weight="400" font-style="normal" 
>
</g>

<g fill="none" stroke="#000000" stroke-opacity="0.847059" stroke-width="1" stroke-linecap="square" stroke-linejoin="bevel" transform="matrix(1,0,0,1,0,0)"
font-family=".AppleSystemUIFont" font-size="22.6667" font-weight="400" font-style="normal" 
>
</g>

<g fill="none" stroke="#000000" stroke-opacity="0.847059" stroke-width="1" stroke-linecap="square" stroke-linejoin="bevel" transform="matrix(1,0,0,1,38,258)"
font-family=".AppleSystemUIFont" font-size="22.6667" font-weight="400" font-style="normal" 
>
<text fill="#000000" fill-opacity="0.847059" stroke="none" xml:space="preserve" x="0" y="20.2344" font-family=".AppleSystemUIFont" font-size="22.6667" font-weight="400" font-style="normal" 
 >1.5</text>
</g>

<g fill="none" stroke="#000000" stroke-opacity="0.847059" stroke-width="1" stroke-linecap="square" stroke-linejoin="bevel" transform="matrix(1,0,0,1,38,258)"
font-family=".AppleSystemUIFont" font-size="22.6667" font-weight="400" font-style="normal" 
>
</g>

<g fill="none" stroke="#000000" stroke-opacity="0.847059" stroke-width="1" stroke-linecap="square" stroke-linejoin="bevel" transform="matrix(1,0,0,1,0,0)"
font-family=".AppleSystemUIFont" font-size="22.6667" font-weight="400" font-style="normal" 
>
</g>

<g fill="none" stroke="#000000" stroke-opacity="0.847059" stroke-width="1" stroke-linecap="square" stroke-linejoin="bevel" transform="matrix(1,0,0,1,53,207)"
font-family=".AppleSystemUIFont" font-size="22.6667" font-weight="400" font-style="normal" 
>
<text fill="#000000" fill-opacity="0.847059" stroke="none" xml:space="preserve" x="0" y="20.2344" font-family=".AppleSystemUIFont" font-size="22.6667" font-weight="400" font-style="normal" 
 >2</text>
</g>

<g fill="none" stroke="#000000" stroke-opacity="0.847059" stroke-width="1" stroke-linecap="square" stroke-linejoin="bevel" transform="matrix(1,0,0,1,53,207)"
font-family=".AppleSystemUIFont" font-size="22.6667" font-weight="400" font-style="normal" 
>
</g>

<g fill="none" stroke="#000000" stroke-opacity="0.847059" stroke-width="1" stroke-linecap="square" stroke-linejoin="bevel" transform="matrix(1,0,0,1,0,0)"
font-family=".AppleSystemUIFont" font-size="22.6667" font-weight="400" font-style="normal" 
>
</g>

<g fill="none" stroke="#000000" stroke-opacity="0.847059" stroke-width="1" stroke-linecap="square" stroke-linejoin="bevel" transform="matrix(1,0,0,1,34,158)"
font-family=".AppleSystemUIFont" font-size="22.6667" font-weight="400" font-style="normal" 
>
<text fill="#000000" fill-opacity="0.847059" stroke="none" xml:space="preserve" x="0" y="20.2344" font-family=".AppleSystemUIFont" font-size="22.6667" font-weight="400" font-style="normal" 
 >2.5</text>
</g>

<g fill="none" stroke="#000000" stroke-opacity="0.847059" stroke-width="1" stroke-linecap="square" stroke-linejoin="bevel" transform="matrix(1,0,0,1,34,158)"
font-family=".AppleSystemUIFont" font-size="22.6667" font-weight="400" font-style="normal" 
>
</g>

<g fill="none" stroke="#000000" stroke-opacity="0.847059" stroke-width="1" stroke-linecap="square" stroke-linejoin="bevel" transform="matrix(1,0,0,1,0,0)"
font-family=".AppleSystemUIFont" font-size="22.6667" font-weight="400" font-style="normal" 
>
</g>

<g fill="none" stroke="#000000" stroke-opacity="0.847059" stroke-width="1" stroke-linecap="square" stroke-linejoin="bevel" transform="matrix(1,0,0,1,53,107)"
font-family=".AppleSystemUIFont" font-size="22.6667" font-weight="400" font-style="normal" 
>
<text fill="#000000" fill-opacity="0.847059" stroke="none" xml:space="preserve" x="0" y="20.2344" font-family=".AppleSystemUIFont" font-size="22.6667" font-weight="400" font-style="normal" 
 >3</text>
</g>

<g fill="none" stroke="#000000" stroke-opacity="0.847059" stroke-width="1" stroke-linecap="square" stroke-linejoin="bevel" transform="matrix(1,0,0,1,53,107)"
font-family=".AppleSystemUIFont" font-size="22.6667" font-weight="400" font-style="normal" 
>
</g>

<g fill="none" stroke="#000000" stroke-opacity="0.847059" stroke-width="1" stroke-linecap="square" stroke-linejoin="bevel" transform="matrix(1,0,0,1,0,0)"
font-family=".AppleSystemUIFont" font-size="22.6667" font-weight="400" font-style="normal" 
>
</g>

<g fill="none" stroke="#000000" stroke-opacity="0.847059" stroke-width="1" stroke-linecap="square" stroke-linejoin="bevel" transform="matrix(1,0,0,1,34,57)"
font-family=".AppleSystemUIFont" font-size="22.6667" font-weight="400" font-style="normal" 
>
<text fill="#000000" fill-opacity="0.847059" stroke="none" xml:space="preserve" x="0" y="20.2344" font-family=".AppleSystemUIFont" font-size="22.6667" font-weight="400" font-style="normal" 
 >3.5</text>
</g>

<g fill="none" stroke="#000000" stroke-opacity="0.847059" stroke-width="1" stroke-linecap="square" stroke-linejoin="bevel" transform="matrix(1,0,0,1,34,57)"
font-family=".AppleSystemUIFont" font-size="22.6667" font-weight="400" font-style="normal" 
>
</g>

<g fill="none" stroke="#000000" stroke-opacity="0.847059" stroke-width="1" stroke-linecap="square" stroke-linejoin="bevel" transform="matrix(1,0,0,1,0,0)"
font-family=".AppleSystemUIFont" font-size="22.6667" font-weight="400" font-style="normal" 
>
</g>

<g fill="none" stroke="#000000" stroke-opacity="0.847059" stroke-width="1" stroke-linecap="square" stroke-linejoin="bevel" transform="matrix(1,0,0,1,51,6)"
font-family=".AppleSystemUIFont" font-size="22.6667" font-weight="400" font-style="normal" 
>
<text fill="#000000" fill-opacity="0.847059" stroke="none" xml:space="preserve" x="0" y="20.2344" font-family=".AppleSystemUIFont" font-size="22.6667" font-weight="400" font-style="normal" 
 >4</text>
</g>

<g fill="none" stroke="#000000" stroke-opacity="0.847059" stroke-width="1" stroke-linecap="square" stroke-linejoin="bevel" transform="matrix(1,0,0,1,51,6)"
font-family=".AppleSystemUIFont" font-size="22.6667" font-weight="400" font-style="normal" 
>
</g>

<g fill="none" stroke="#000000" stroke-opacity="0.847059" stroke-width="1" stroke-linecap="square" stroke-linejoin="bevel" transform="matrix(1,0,0,1,0,0)"
font-family=".AppleSystemUIFont" font-size="22.6667" font-weight="400" font-style="normal" 
>
</g>

<g fill="none" stroke="#000000" stroke-opacity="1" stroke-width="1" stroke-linecap="square" stroke-linejoin="bevel" transform="matrix(1,0,0,1,0,0)"
font-family=".AppleSystemUIFont" font-size="22.6667" font-weight="400" font-style="normal" 
>
<polyline fill="none" vector-effect="none" points="88,359 81,359 " />
<polyline fill="none" vector-effect="none" points="88,349 81,349 " />
<polyline fill="none" vector-effect="none" points="88,339 81,339 " />
<polyline fill="none" vector-effect="none" points="88,329 81,329 " />
<polyline fill="none" vector-effect="none" points="88,308 81,308 " />
<polyline fill="none" vector-effect="none" points="88,298 81,298 " />
<polyline fill="none" vector-effect="none" points="88,288 81,288 " />
<polyline fill="none" vector-effect="none" points="88,278 81,278 " />
<polyline fill="none" vector-effect="none" points="88,258 81,258 " />
<polyline fill="none" vector-effect="none" points="88,248 81,248 " />
<polyline fill="none" vector-effect="none" points="88,238 81,238 " />
<polyline fill="none" vector-effect="none" points="88,228 81,228 " />
<polyline fill="none" vector-effect="none" points="88,208 81,208 " />
<polyline fill="none" vector-effect="none" points="88,198 81,198 " />
<polyline fill="none" vector-effect="none" points="88,187 81,187 " />
<polyline fill="none" vector-effect="none" points="88,177 81,177 " />
<polyline fill="none" vector-effect="none" points="88,157 81,157 " />
<polyline fill="none" vector-effect="none" points="88,147 81,147 " />
<polyline fill="none" vector-effect="none" points="88,137 81,137 " />
<polyline fill="none" vector-effect="none" points="88,127 81,127 " />
<polyline fill="none" vector-effect="none" points="88,107 81,107 " />
<polyline fill="none" vector-effect="none" points="88,97 81,97 " />
<polyline fill="none" vector-effect="none" points="88,87 81,87 " />
<polyline fill="none" vector-effect="none" points="88,77 81,77 " />
<polyline fill="none" vector-effect="none" points="88,56 81,56 " />
<polyline fill="none" vector-effect="none" points="88,46 81,46 " />
<polyline fill="none" vector-effect="none" points="88,36 81,36 " />
<polyline fill="none" vector-effect="none" points="88,26 81,26 " />
<polyline fill="none" vector-effect="none" points="88,369 76,369 " />
<polyline fill="none" vector-effect="none" points="88,319 76,319 " />
<polyline fill="none" vector-effect="none" points="88,268 76,268 " />
<polyline fill="none" vector-effect="none" points="88,218 76,218 " />
<polyline fill="none" vector-effect="none" points="88,167 76,167 " />
<polyline fill="none" vector-effect="none" points="88,117 76,117 " />
<polyline fill="none" vector-effect="none" points="88,66 76,66 " />
<polyline fill="none" vector-effect="none" points="88,16 76,16 " />
</g>

<g fill="none" stroke="#000000" stroke-opacity="1" stroke-width="1" stroke-linecap="square" stroke-linejoin="bevel" transform="matrix(1,0,0,1,0,0)"
font-family=".AppleSystemUIFont" font-size="22.6667" font-weight="400" font-style="normal" 
>
<polyline fill="none" vector-effect="none" points="88,16 88,368 " />
</g>

<g fill="none" stroke="#000000" stroke-opacity="1" stroke-width="1" stroke-linecap="square" stroke-linejoin="bevel" transform="matrix(1,0,0,1,0,0)"
font-family=".AppleSystemUIFont" font-size="22.6667" font-weight="400" font-style="normal" 
>
</g>

<g fill="none" stroke="#000000" stroke-opacity="1" stroke-width="1" stroke-linecap="square" stroke-linejoin="bevel" transform="matrix(1,0,0,1,0,0)"
font-family=".AppleSystemUIFont" font-size="17.3333" font-weight="400" font-style="normal" 
>
</g>

<g fill="none" stroke="#000000" stroke-opacity="0.847059" stroke-width="1" stroke-linecap="square" stroke-linejoin="bevel" transform="matrix(1,0,0,1,81,371)"
font-family=".AppleSystemUIFont" font-size="22.6667" font-weight="400" font-style="normal" 
>
</g>

<g fill="none" stroke="#000000" stroke-opacity="1" stroke-width="1" stroke-linecap="square" stroke-linejoin="bevel" transform="matrix(1,0,0,1,81,371)"
font-family=".AppleSystemUIFont" font-size="22.6667" font-weight="700" font-style="normal" 
>
</g>

<g fill="none" stroke="#000000" stroke-opacity="1" stroke-width="1" stroke-linecap="square" stroke-linejoin="bevel" transform="matrix(1,0,0,1,81,412)"
font-family=".AppleSystemUIFont" font-size="22.6667" font-weight="700" font-style="normal" 
>
<text fill="#000000" fill-opacity="1" stroke="none" xml:space="preserve" x="247.125" y="22.2344" font-family=".AppleSystemUIFont" font-size="22.6667" font-weight="700" font-style="normal" 
 >V</text>
<text fill="#000000" fill-opacity="1" stroke="none" xml:space="preserve" x="262.359" y="13.4063" font-family=".AppleSystemUIFont" font-size="14.6667" font-weight="700" font-style="normal" 
 >-1</text>
<text fill="#000000" fill-opacity="1" stroke="none" xml:space="preserve" x="276.563" y="22.2344" font-family=".AppleSystemUIFont" font-size="22.6667" font-weight="700" font-style="normal" 
 >(L</text>
<text fill="#000000" fill-opacity="1" stroke="none" xml:space="preserve" x="297.203" y="13.4063" font-family=".AppleSystemUIFont" font-size="14.6667" font-weight="700" font-style="normal" 
 >-1</text>
<text fill="#000000" fill-opacity="1" stroke="none" xml:space="preserve" x="311.406" y="22.2344" font-family=".AppleSystemUIFont" font-size="22.6667" font-weight="700" font-style="normal" 
 >)</text>
</g>

<g fill="none" stroke="#000000" stroke-opacity="1" stroke-width="1" stroke-linecap="square" stroke-linejoin="bevel" transform="matrix(1,0,0,1,81,371)"
font-family=".AppleSystemUIFont" font-size="22.6667" font-weight="700" font-style="normal" 
>
</g>

<g fill="none" stroke="#000000" stroke-opacity="0.847059" stroke-width="1" stroke-linecap="square" stroke-linejoin="bevel" transform="matrix(1,0,0,1,81,371)"
font-family=".AppleSystemUIFont" font-size="22.6667" font-weight="400" font-style="normal" 
>
</g>

<g fill="none" stroke="#000000" stroke-opacity="1" stroke-width="1" stroke-linecap="square" stroke-linejoin="bevel" transform="matrix(1,0,0,1,0,0)"
font-family=".AppleSystemUIFont" font-size="17.3333" font-weight="400" font-style="normal" 
>
</g>

<g fill="none" stroke="#000000" stroke-opacity="1" stroke-width="1" stroke-linecap="square" stroke-linejoin="bevel" transform="matrix(1,0,0,1,0,0)"
font-family=".AppleSystemUIFont" font-size="22.6667" font-weight="400" font-style="normal" 
>
</g>

<g fill="none" stroke="#000000" stroke-opacity="0.847059" stroke-width="1" stroke-linecap="square" stroke-linejoin="bevel" transform="matrix(1,0,0,1,0,0)"
font-family=".AppleSystemUIFont" font-size="22.6667" font-weight="400" font-style="normal" 
>
</g>

<g fill="none" stroke="#000000" stroke-opacity="0.847059" stroke-width="1" stroke-linecap="square" stroke-linejoin="bevel" transform="matrix(1,0,0,1,81,388)"
font-family=".AppleSystemUIFont" font-size="22.6667" font-weight="400" font-style="normal" 
>
<text fill="#000000" fill-opacity="0.847059" stroke="none" xml:space="preserve" x="0" y="20.2344" font-family=".AppleSystemUIFont" font-size="22.6667" font-weight="400" font-style="normal" 
 >0</text>
</g>

<g fill="none" stroke="#000000" stroke-opacity="0.847059" stroke-width="1" stroke-linecap="square" stroke-linejoin="bevel" transform="matrix(1,0,0,1,81,388)"
font-family=".AppleSystemUIFont" font-size="22.6667" font-weight="400" font-style="normal" 
>
</g>

<g fill="none" stroke="#000000" stroke-opacity="0.847059" stroke-width="1" stroke-linecap="square" stroke-linejoin="bevel" transform="matrix(1,0,0,1,0,0)"
font-family=".AppleSystemUIFont" font-size="22.6667" font-weight="400" font-style="normal" 
>
</g>

<g fill="none" stroke="#000000" stroke-opacity="0.847059" stroke-width="1" stroke-linecap="square" stroke-linejoin="bevel" transform="matrix(1,0,0,1,174,388)"
font-family=".AppleSystemUIFont" font-size="22.6667" font-weight="400" font-style="normal" 
>
<text fill="#000000" fill-opacity="0.847059" stroke="none" xml:space="preserve" x="0" y="20.2344" font-family=".AppleSystemUIFont" font-size="22.6667" font-weight="400" font-style="normal" 
 >1</text>
</g>

<g fill="none" stroke="#000000" stroke-opacity="0.847059" stroke-width="1" stroke-linecap="square" stroke-linejoin="bevel" transform="matrix(1,0,0,1,174,388)"
font-family=".AppleSystemUIFont" font-size="22.6667" font-weight="400" font-style="normal" 
>
</g>

<g fill="none" stroke="#000000" stroke-opacity="0.847059" stroke-width="1" stroke-linecap="square" stroke-linejoin="bevel" transform="matrix(1,0,0,1,0,0)"
font-family=".AppleSystemUIFont" font-size="22.6667" font-weight="400" font-style="normal" 
>
</g>

<g fill="none" stroke="#000000" stroke-opacity="0.847059" stroke-width="1" stroke-linecap="square" stroke-linejoin="bevel" transform="matrix(1,0,0,1,264,388)"
font-family=".AppleSystemUIFont" font-size="22.6667" font-weight="400" font-style="normal" 
>
<text fill="#000000" fill-opacity="0.847059" stroke="none" xml:space="preserve" x="0" y="20.2344" font-family=".AppleSystemUIFont" font-size="22.6667" font-weight="400" font-style="normal" 
 >2</text>
</g>

<g fill="none" stroke="#000000" stroke-opacity="0.847059" stroke-width="1" stroke-linecap="square" stroke-linejoin="bevel" transform="matrix(1,0,0,1,264,388)"
font-family=".AppleSystemUIFont" font-size="22.6667" font-weight="400" font-style="normal" 
>
</g>

<g fill="none" stroke="#000000" stroke-opacity="0.847059" stroke-width="1" stroke-linecap="square" stroke-linejoin="bevel" transform="matrix(1,0,0,1,0,0)"
font-family=".AppleSystemUIFont" font-size="22.6667" font-weight="400" font-style="normal" 
>
</g>

<g fill="none" stroke="#000000" stroke-opacity="0.847059" stroke-width="1" stroke-linecap="square" stroke-linejoin="bevel" transform="matrix(1,0,0,1,356,388)"
font-family=".AppleSystemUIFont" font-size="22.6667" font-weight="400" font-style="normal" 
>
<text fill="#000000" fill-opacity="0.847059" stroke="none" xml:space="preserve" x="0" y="20.2344" font-family=".AppleSystemUIFont" font-size="22.6667" font-weight="400" font-style="normal" 
 >3</text>
</g>

<g fill="none" stroke="#000000" stroke-opacity="0.847059" stroke-width="1" stroke-linecap="square" stroke-linejoin="bevel" transform="matrix(1,0,0,1,356,388)"
font-family=".AppleSystemUIFont" font-size="22.6667" font-weight="400" font-style="normal" 
>
</g>

<g fill="none" stroke="#000000" stroke-opacity="0.847059" stroke-width="1" stroke-linecap="square" stroke-linejoin="bevel" transform="matrix(1,0,0,1,0,0)"
font-family=".AppleSystemUIFont" font-size="22.6667" font-weight="400" font-style="normal" 
>
</g>

<g fill="none" stroke="#000000" stroke-opacity="0.847059" stroke-width="1" stroke-linecap="square" stroke-linejoin="bevel" transform="matrix(1,0,0,1,447,388)"
font-family=".AppleSystemUIFont" font-size="22.6667" font-weight="400" font-style="normal" 
>
<text fill="#000000" fill-opacity="0.847059" stroke="none" xml:space="preserve" x="0" y="20.2344" font-family=".AppleSystemUIFont" font-size="22.6667" font-weight="400" font-style="normal" 
 >4</text>
</g>

<g fill="none" stroke="#000000" stroke-opacity="0.847059" stroke-width="1" stroke-linecap="square" stroke-linejoin="bevel" transform="matrix(1,0,0,1,447,388)"
font-family=".AppleSystemUIFont" font-size="22.6667" font-weight="400" font-style="normal" 
>
</g>

<g fill="none" stroke="#000000" stroke-opacity="0.847059" stroke-width="1" stroke-linecap="square" stroke-linejoin="bevel" transform="matrix(1,0,0,1,0,0)"
font-family=".AppleSystemUIFont" font-size="22.6667" font-weight="400" font-style="normal" 
>
</g>

<g fill="none" stroke="#000000" stroke-opacity="0.847059" stroke-width="1" stroke-linecap="square" stroke-linejoin="bevel" transform="matrix(1,0,0,1,539,388)"
font-family=".AppleSystemUIFont" font-size="22.6667" font-weight="400" font-style="normal" 
>
<text fill="#000000" fill-opacity="0.847059" stroke="none" xml:space="preserve" x="0" y="20.2344" font-family=".AppleSystemUIFont" font-size="22.6667" font-weight="400" font-style="normal" 
 >5</text>
</g>

<g fill="none" stroke="#000000" stroke-opacity="0.847059" stroke-width="1" stroke-linecap="square" stroke-linejoin="bevel" transform="matrix(1,0,0,1,539,388)"
font-family=".AppleSystemUIFont" font-size="22.6667" font-weight="400" font-style="normal" 
>
</g>

<g fill="none" stroke="#000000" stroke-opacity="0.847059" stroke-width="1" stroke-linecap="square" stroke-linejoin="bevel" transform="matrix(1,0,0,1,0,0)"
font-family=".AppleSystemUIFont" font-size="22.6667" font-weight="400" font-style="normal" 
>
</g>

<g fill="none" stroke="#000000" stroke-opacity="0.847059" stroke-width="1" stroke-linecap="square" stroke-linejoin="bevel" transform="matrix(1,0,0,1,631,388)"
font-family=".AppleSystemUIFont" font-size="22.6667" font-weight="400" font-style="normal" 
>
<text fill="#000000" fill-opacity="0.847059" stroke="none" xml:space="preserve" x="0" y="20.2344" font-family=".AppleSystemUIFont" font-size="22.6667" font-weight="400" font-style="normal" 
 >6</text>
</g>

<g fill="none" stroke="#000000" stroke-opacity="0.847059" stroke-width="1" stroke-linecap="square" stroke-linejoin="bevel" transform="matrix(1,0,0,1,631,388)"
font-family=".AppleSystemUIFont" font-size="22.6667" font-weight="400" font-style="normal" 
>
</g>

<g fill="none" stroke="#000000" stroke-opacity="0.847059" stroke-width="1" stroke-linecap="square" stroke-linejoin="bevel" transform="matrix(1,0,0,1,0,0)"
font-family=".AppleSystemUIFont" font-size="22.6667" font-weight="400" font-style="normal" 
>
</g>

<g fill="none" stroke="#000000" stroke-opacity="1" stroke-width="1" stroke-linecap="square" stroke-linejoin="bevel" transform="matrix(1,0,0,1,0,0)"
font-family=".AppleSystemUIFont" font-size="22.6667" font-weight="400" font-style="normal" 
>
<polyline fill="none" vector-effect="none" points="107,371 107,378 " />
<polyline fill="none" vector-effect="none" points="126,371 126,378 " />
<polyline fill="none" vector-effect="none" points="144,371 144,378 " />
<polyline fill="none" vector-effect="none" points="162,371 162,378 " />
<polyline fill="none" vector-effect="none" points="199,371 199,378 " />
<polyline fill="none" vector-effect="none" points="217,371 217,378 " />
<polyline fill="none" vector-effect="none" points="236,371 236,378 " />
<polyline fill="none" vector-effect="none" points="254,371 254,378 " />
<polyline fill="none" vector-effect="none" points="291,371 291,378 " />
<polyline fill="none" vector-effect="none" points="309,371 309,378 " />
<polyline fill="none" vector-effect="none" points="327,371 327,378 " />
<polyline fill="none" vector-effect="none" points="346,371 346,378 " />
<polyline fill="none" vector-effect="none" points="382,371 382,378 " />
<polyline fill="none" vector-effect="none" points="401,371 401,378 " />
<polyline fill="none" vector-effect="none" points="419,371 419,378 " />
<polyline fill="none" vector-effect="none" points="437,371 437,378 " />
<polyline fill="none" vector-effect="none" points="474,371 474,378 " />
<polyline fill="none" vector-effect="none" points="492,371 492,378 " />
<polyline fill="none" vector-effect="none" points="511,371 511,378 " />
<polyline fill="none" vector-effect="none" points="529,371 529,378 " />
<polyline fill="none" vector-effect="none" points="566,371 566,378 " />
<polyline fill="none" vector-effect="none" points="584,371 584,378 " />
<polyline fill="none" vector-effect="none" points="602,371 602,378 " />
<polyline fill="none" vector-effect="none" points="621,371 621,378 " />
<polyline fill="none" vector-effect="none" points="89,371 89,383 " />
<polyline fill="none" vector-effect="none" points="181,371 181,383 " />
<polyline fill="none" vector-effect="none" points="272,371 272,383 " />
<polyline fill="none" vector-effect="none" points="364,371 364,383 " />
<polyline fill="none" vector-effect="none" points="456,371 456,383 " />
<polyline fill="none" vector-effect="none" points="547,371 547,383 " />
<polyline fill="none" vector-effect="none" points="639,371 639,383 " />
</g>

<g fill="none" stroke="#000000" stroke-opacity="1" stroke-width="1" stroke-linecap="square" stroke-linejoin="bevel" transform="matrix(1,0,0,1,0,0)"
font-family=".AppleSystemUIFont" font-size="22.6667" font-weight="400" font-style="normal" 
>
<polyline fill="none" vector-effect="none" points="89,371 637,371 " />
</g>

<g fill="none" stroke="#000000" stroke-opacity="1" stroke-width="1" stroke-linecap="square" stroke-linejoin="bevel" transform="matrix(1,0,0,1,0,0)"
font-family=".AppleSystemUIFont" font-size="22.6667" font-weight="400" font-style="normal" 
>
</g>

<g fill="none" stroke="#000000" stroke-opacity="1" stroke-width="1" stroke-linecap="square" stroke-linejoin="bevel" transform="matrix(1,0,0,1,0,0)"
font-family=".AppleSystemUIFont" font-size="17.3333" font-weight="400" font-style="normal" 
>
</g>

<g fill="#ffffff" fill-opacity="1" stroke="none" transform="matrix(1,0,0,1,0,0)"
font-family=".AppleSystemUIFont" font-size="17.3333" font-weight="400" font-style="normal" 
>
<rect x="89" y="16" width="550" height="353"/>
</g>

<g fill="none" stroke="#000000" stroke-opacity="1" stroke-width="1" stroke-linecap="square" stroke-linejoin="bevel" transform="matrix(1,0,0,1,0,0)"
font-family=".AppleSystemUIFont" font-size="17.3333" font-weight="400" font-style="normal" 
>
</g>

<g fill="none" stroke="#000000" stroke-opacity="1" stroke-width="1" stroke-linecap="square" stroke-linejoin="bevel" transform="matrix(1,0,0,1,0,0)"
font-family=".AppleSystemUIFont" font-size="17.3333" font-weight="400" font-style="normal" 
>
</g>

<g fill="none" stroke="#000000" stroke-opacity="1" stroke-width="1" stroke-linecap="square" stroke-linejoin="bevel" transform="matrix(1,0,0,1,0,0)"
font-family=".AppleSystemUIFont" font-size="17.3333" font-weight="400" font-style="normal" 
>
</g>

<g fill="none" stroke="#000000" stroke-opacity="1" stroke-width="1" stroke-linecap="square" stroke-linejoin="bevel" transform="matrix(1,0,0,1,0,0)"
font-family=".AppleSystemUIFont" font-size="17.3333" font-weight="400" font-style="normal" 
>
</g>

<g fill="#000000" fill-opacity="1" stroke="#000000" stroke-opacity="1" stroke-width="1" stroke-linecap="square" stroke-linejoin="bevel" transform="matrix(1,0,0,1,0,0)"
font-family=".AppleSystemUIFont" font-size="17.3333" font-weight="400" font-style="normal" 
>
<circle vector-effect="non-scaling-stroke" cx="181" cy="344" r="4"/>
<circle vector-effect="non-scaling-stroke" cx="204" cy="330" r="4"/>
<circle vector-effect="non-scaling-stroke" cx="220" cy="321" r="4"/>
<circle vector-effect="non-scaling-stroke" cx="242" cy="290" r="4"/>
<circle vector-effect="non-scaling-stroke" cx="272" cy="264" r="4"/>
<circle vector-effect="non-scaling-stroke" cx="318" cy="245" r="4"/>
<circle vector-effect="non-scaling-stroke" cx="395" cy="187" r="4"/>
<circle vector-effect="non-scaling-stroke" cx="547" cy="61" r="4"/>
</g>

<g fill="none" stroke="#000000" stroke-opacity="1" stroke-width="1" stroke-linecap="square" stroke-linejoin="bevel" transform="matrix(1,0,0,1,0,0)"
font-family=".AppleSystemUIFont" font-size="17.3333" font-weight="400" font-style="normal" 
>
</g>

<g fill="none" stroke="#000000" stroke-opacity="1" stroke-width="1" stroke-linecap="square" stroke-linejoin="bevel" transform="matrix(1,0,0,1,0,0)"
font-family=".AppleSystemUIFont" font-size="17.3333" font-weight="400" font-style="normal" 
>
</g>

<g fill="none" stroke="#000000" stroke-opacity="1" stroke-width="1" stroke-linecap="square" stroke-linejoin="bevel" transform="matrix(1,0,0,1,0,0)"
font-family=".AppleSystemUIFont" font-size="17.3333" font-weight="400" font-style="normal" 
>
</g>

<g fill="none" stroke="#ff0000" stroke-opacity="1" stroke-width="3" stroke-linecap="square" stroke-linejoin="bevel" transform="matrix(1,0,0,1,0,0)"
font-family=".AppleSystemUIFont" font-size="17.3333" font-weight="400" font-style="normal" 
>
<polyline fill="none" vector-effect="non-scaling-stroke" points="181,344 547,64 " />
</g>

<g fill="none" stroke="#000000" stroke-opacity="1" stroke-width="1" stroke-linecap="square" stroke-linejoin="bevel" transform="matrix(1,0,0,1,0,0)"
font-family=".AppleSystemUIFont" font-size="17.3333" font-weight="400" font-style="normal" 
>
</g>

<g fill="none" stroke="#000000" stroke-opacity="1" stroke-width="1" stroke-linecap="square" stroke-linejoin="bevel" transform="matrix(1,0,0,1,0,0)"
font-family=".AppleSystemUIFont" font-size="17.3333" font-weight="400" font-style="normal" 
>
</g>

<g fill="none" stroke="#000000" stroke-opacity="0.847059" stroke-width="1" stroke-linecap="round" stroke-linejoin="round" transform="matrix(1,0,0,1,0,0)"
font-family=".AppleSystemUIFont" font-size="17.3333" font-weight="400" font-style="normal" 
>
</g>

<g fill="none" stroke="#000000" stroke-opacity="1" stroke-width="1" stroke-linecap="square" stroke-linejoin="bevel" transform="matrix(1,0,0,1,0,0)"
font-family=".AppleSystemUIFont" font-size="17.3333" font-weight="400" font-style="normal" 
>
</g>

<g fill="none" stroke="#000000" stroke-opacity="1" stroke-width="1" stroke-linecap="square" stroke-linejoin="bevel" transform="matrix(1,0,0,1,0,0)"
font-family=".AppleSystemUIFont" font-size="17.3333" font-weight="400" font-style="normal" 
>
</g>
</g>
</svg>
