<?xml version="1.0" encoding="UTF-8" standalone="no"?>
<svg width="171.715mm" height="118.004mm"
 viewBox="0 0 649 446"
 xmlns="http://www.w3.org/2000/svg" xmlns:xlink="http://www.w3.org/1999/xlink"  version="1.2" baseProfile="tiny">
<title>Graph1</title>
<desc>Generated with Qt</desc>
<defs>
</defs>
<g fill="none" stroke="black" stroke-width="1" fill-rule="evenodd" stroke-linecap="square" stroke-linejoin="bevel" >

<g fill="#ffffff" fill-opacity="1" stroke="none" transform="matrix(1,0,0,1,0,0)"
font-family=".AppleSystemUIFont" font-size="17.3333" font-weight="400" font-style="normal" 
>
<rect x="0" y="0" width="649" height="446"/>
</g>

<g fill="none" stroke="#000000" stroke-opacity="1" stroke-width="1" stroke-linecap="square" stroke-linejoin="bevel" transform="matrix(1,0,0,1,0,0)"
font-family=".AppleSystemUIFont" font-size="17.3333" font-weight="400" font-style="normal" 
>
</g>

<g fill="#ffffff" fill-opacity="1" stroke="none" transform="matrix(1,0,0,1,0,0)"
font-family=".AppleSystemUIFont" font-size="17.3333" font-weight="400" font-style="normal" 
>
<rect x="2" y="3" width="645" height="439"/>
</g>

<g fill="none" stroke="#000000" stroke-opacity="1" stroke-width="1" stroke-linecap="square" stroke-linejoin="bevel" transform="matrix(1,0,0,1,0,0)"
font-family=".AppleSystemUIFont" font-size="17.3333" font-weight="400" font-style="normal" 
>
</g>

<g fill="none" stroke="#000000" stroke-opacity="1" stroke-width="1" stroke-linecap="square" stroke-linejoin="bevel" transform="matrix(1,0,0,1,0,0)"
font-family=".AppleSystemUIFont" font-size="17.3333" font-weight="400" font-style="normal" 
>
</g>

<g fill="none" stroke="#000000" stroke-opacity="0.847059" stroke-width="1" stroke-linecap="square" stroke-linejoin="bevel" transform="matrix(0,-1,1,0,3,388)"
font-family=".AppleSystemUIFont" font-size="18.6667" font-weight="400" font-style="normal" 
>
</g>

<g fill="none" stroke="#000000" stroke-opacity="1" stroke-width="1" stroke-linecap="square" stroke-linejoin="bevel" transform="matrix(0,-1,1,0,3,388)"
font-family=".AppleSystemUIFont" font-size="18.6667" font-weight="700" font-style="normal" 
>
<text fill="#000000" fill-opacity="1" stroke="none" xml:space="preserve" x="161.094" y="18.3594" font-family=".AppleSystemUIFont" font-size="18.6667" font-weight="700" font-style="normal" 
 >P (torr)</text>
</g>

<g fill="none" stroke="#000000" stroke-opacity="0.847059" stroke-width="1" stroke-linecap="square" stroke-linejoin="bevel" transform="matrix(0,-1,1,0,3,388)"
font-family=".AppleSystemUIFont" font-size="18.6667" font-weight="400" font-style="normal" 
>
</g>

<g fill="none" stroke="#000000" stroke-opacity="1" stroke-width="1" stroke-linecap="square" stroke-linejoin="bevel" transform="matrix(1,0,0,1,0,0)"
font-family=".AppleSystemUIFont" font-size="17.3333" font-weight="400" font-style="normal" 
>
</g>

<g fill="none" stroke="#000000" stroke-opacity="1" stroke-width="1" stroke-linecap="square" stroke-linejoin="bevel" transform="matrix(1,0,0,1,0,0)"
font-family=".AppleSystemUIFont" font-size="18.6667" font-weight="400" font-style="normal" 
>
</g>

<g fill="none" stroke="#000000" stroke-opacity="0.847059" stroke-width="1" stroke-linecap="square" stroke-linejoin="bevel" transform="matrix(1,0,0,1,0,0)"
font-family=".AppleSystemUIFont" font-size="18.6667" font-weight="400" font-style="normal" 
>
</g>

<g fill="none" stroke="#000000" stroke-opacity="0.847059" stroke-width="1" stroke-linecap="square" stroke-linejoin="bevel" transform="matrix(1,0,0,1,66,373)"
font-family=".AppleSystemUIFont" font-size="18.6667" font-weight="400" font-style="normal" 
>
<text fill="#000000" fill-opacity="0.847059" stroke="none" xml:space="preserve" x="0" y="15.3594" font-family=".AppleSystemUIFont" font-size="18.6667" font-weight="400" font-style="normal" 
 >0</text>
</g>

<g fill="none" stroke="#000000" stroke-opacity="0.847059" stroke-width="1" stroke-linecap="square" stroke-linejoin="bevel" transform="matrix(1,0,0,1,66,373)"
font-family=".AppleSystemUIFont" font-size="18.6667" font-weight="400" font-style="normal" 
>
</g>

<g fill="none" stroke="#000000" stroke-opacity="0.847059" stroke-width="1" stroke-linecap="square" stroke-linejoin="bevel" transform="matrix(1,0,0,1,0,0)"
font-family=".AppleSystemUIFont" font-size="18.6667" font-weight="400" font-style="normal" 
>
</g>

<g fill="none" stroke="#000000" stroke-opacity="0.847059" stroke-width="1" stroke-linecap="square" stroke-linejoin="bevel" transform="matrix(1,0,0,1,43,312)"
font-family=".AppleSystemUIFont" font-size="18.6667" font-weight="400" font-style="normal" 
>
<text fill="#000000" fill-opacity="0.847059" stroke="none" xml:space="preserve" x="0" y="15.3594" font-family=".AppleSystemUIFont" font-size="18.6667" font-weight="400" font-style="normal" 
 >500</text>
</g>

<g fill="none" stroke="#000000" stroke-opacity="0.847059" stroke-width="1" stroke-linecap="square" stroke-linejoin="bevel" transform="matrix(1,0,0,1,43,312)"
font-family=".AppleSystemUIFont" font-size="18.6667" font-weight="400" font-style="normal" 
>
</g>

<g fill="none" stroke="#000000" stroke-opacity="0.847059" stroke-width="1" stroke-linecap="square" stroke-linejoin="bevel" transform="matrix(1,0,0,1,0,0)"
font-family=".AppleSystemUIFont" font-size="18.6667" font-weight="400" font-style="normal" 
>
</g>

<g fill="none" stroke="#000000" stroke-opacity="0.847059" stroke-width="1" stroke-linecap="square" stroke-linejoin="bevel" transform="matrix(1,0,0,1,30,249)"
font-family=".AppleSystemUIFont" font-size="18.6667" font-weight="400" font-style="normal" 
>
<text fill="#000000" fill-opacity="0.847059" stroke="none" xml:space="preserve" x="0" y="15.3594" font-family=".AppleSystemUIFont" font-size="18.6667" font-weight="400" font-style="normal" 
 >1,000</text>
</g>

<g fill="none" stroke="#000000" stroke-opacity="0.847059" stroke-width="1" stroke-linecap="square" stroke-linejoin="bevel" transform="matrix(1,0,0,1,30,249)"
font-family=".AppleSystemUIFont" font-size="18.6667" font-weight="400" font-style="normal" 
>
</g>

<g fill="none" stroke="#000000" stroke-opacity="0.847059" stroke-width="1" stroke-linecap="square" stroke-linejoin="bevel" transform="matrix(1,0,0,1,0,0)"
font-family=".AppleSystemUIFont" font-size="18.6667" font-weight="400" font-style="normal" 
>
</g>

<g fill="none" stroke="#000000" stroke-opacity="0.847059" stroke-width="1" stroke-linecap="square" stroke-linejoin="bevel" transform="matrix(1,0,0,1,30,188)"
font-family=".AppleSystemUIFont" font-size="18.6667" font-weight="400" font-style="normal" 
>
<text fill="#000000" fill-opacity="0.847059" stroke="none" xml:space="preserve" x="0" y="15.3594" font-family=".AppleSystemUIFont" font-size="18.6667" font-weight="400" font-style="normal" 
 >1,500</text>
</g>

<g fill="none" stroke="#000000" stroke-opacity="0.847059" stroke-width="1" stroke-linecap="square" stroke-linejoin="bevel" transform="matrix(1,0,0,1,30,188)"
font-family=".AppleSystemUIFont" font-size="18.6667" font-weight="400" font-style="normal" 
>
</g>

<g fill="none" stroke="#000000" stroke-opacity="0.847059" stroke-width="1" stroke-linecap="square" stroke-linejoin="bevel" transform="matrix(1,0,0,1,0,0)"
font-family=".AppleSystemUIFont" font-size="18.6667" font-weight="400" font-style="normal" 
>
</g>

<g fill="none" stroke="#000000" stroke-opacity="0.847059" stroke-width="1" stroke-linecap="square" stroke-linejoin="bevel" transform="matrix(1,0,0,1,27,127)"
font-family=".AppleSystemUIFont" font-size="18.6667" font-weight="400" font-style="normal" 
>
<text fill="#000000" fill-opacity="0.847059" stroke="none" xml:space="preserve" x="0" y="15.3594" font-family=".AppleSystemUIFont" font-size="18.6667" font-weight="400" font-style="normal" 
 >2,000</text>
</g>

<g fill="none" stroke="#000000" stroke-opacity="0.847059" stroke-width="1" stroke-linecap="square" stroke-linejoin="bevel" transform="matrix(1,0,0,1,27,127)"
font-family=".AppleSystemUIFont" font-size="18.6667" font-weight="400" font-style="normal" 
>
</g>

<g fill="none" stroke="#000000" stroke-opacity="0.847059" stroke-width="1" stroke-linecap="square" stroke-linejoin="bevel" transform="matrix(1,0,0,1,0,0)"
font-family=".AppleSystemUIFont" font-size="18.6667" font-weight="400" font-style="normal" 
>
</g>

<g fill="none" stroke="#000000" stroke-opacity="0.847059" stroke-width="1" stroke-linecap="square" stroke-linejoin="bevel" transform="matrix(1,0,0,1,27,64)"
font-family=".AppleSystemUIFont" font-size="18.6667" font-weight="400" font-style="normal" 
>
<text fill="#000000" fill-opacity="0.847059" stroke="none" xml:space="preserve" x="0" y="15.3594" font-family=".AppleSystemUIFont" font-size="18.6667" font-weight="400" font-style="normal" 
 >2,500</text>
</g>

<g fill="none" stroke="#000000" stroke-opacity="0.847059" stroke-width="1" stroke-linecap="square" stroke-linejoin="bevel" transform="matrix(1,0,0,1,27,64)"
font-family=".AppleSystemUIFont" font-size="18.6667" font-weight="400" font-style="normal" 
>
</g>

<g fill="none" stroke="#000000" stroke-opacity="0.847059" stroke-width="1" stroke-linecap="square" stroke-linejoin="bevel" transform="matrix(1,0,0,1,0,0)"
font-family=".AppleSystemUIFont" font-size="18.6667" font-weight="400" font-style="normal" 
>
</g>

<g fill="none" stroke="#000000" stroke-opacity="0.847059" stroke-width="1" stroke-linecap="square" stroke-linejoin="bevel" transform="matrix(1,0,0,1,27,3)"
font-family=".AppleSystemUIFont" font-size="18.6667" font-weight="400" font-style="normal" 
>
<text fill="#000000" fill-opacity="0.847059" stroke="none" xml:space="preserve" x="0" y="15.3594" font-family=".AppleSystemUIFont" font-size="18.6667" font-weight="400" font-style="normal" 
 >3,000</text>
</g>

<g fill="none" stroke="#000000" stroke-opacity="0.847059" stroke-width="1" stroke-linecap="square" stroke-linejoin="bevel" transform="matrix(1,0,0,1,27,3)"
font-family=".AppleSystemUIFont" font-size="18.6667" font-weight="400" font-style="normal" 
>
</g>

<g fill="none" stroke="#000000" stroke-opacity="0.847059" stroke-width="1" stroke-linecap="square" stroke-linejoin="bevel" transform="matrix(1,0,0,1,0,0)"
font-family=".AppleSystemUIFont" font-size="18.6667" font-weight="400" font-style="normal" 
>
</g>

<g fill="none" stroke="#000000" stroke-opacity="1" stroke-width="1" stroke-linecap="square" stroke-linejoin="bevel" transform="matrix(1,0,0,1,0,0)"
font-family=".AppleSystemUIFont" font-size="18.6667" font-weight="400" font-style="normal" 
>
<polyline fill="none" vector-effect="none" points="100,369 93,369 " />
<polyline fill="none" vector-effect="none" points="100,356 93,356 " />
<polyline fill="none" vector-effect="none" points="100,344 93,344 " />
<polyline fill="none" vector-effect="none" points="100,332 93,332 " />
<polyline fill="none" vector-effect="none" points="100,307 93,307 " />
<polyline fill="none" vector-effect="none" points="100,295 93,295 " />
<polyline fill="none" vector-effect="none" points="100,282 93,282 " />
<polyline fill="none" vector-effect="none" points="100,270 93,270 " />
<polyline fill="none" vector-effect="none" points="100,245 93,245 " />
<polyline fill="none" vector-effect="none" points="100,233 93,233 " />
<polyline fill="none" vector-effect="none" points="100,221 93,221 " />
<polyline fill="none" vector-effect="none" points="100,208 93,208 " />
<polyline fill="none" vector-effect="none" points="100,184 93,184 " />
<polyline fill="none" vector-effect="none" points="100,171 93,171 " />
<polyline fill="none" vector-effect="none" points="100,159 93,159 " />
<polyline fill="none" vector-effect="none" points="100,147 93,147 " />
<polyline fill="none" vector-effect="none" points="100,122 93,122 " />
<polyline fill="none" vector-effect="none" points="100,110 93,110 " />
<polyline fill="none" vector-effect="none" points="100,97 93,97 " />
<polyline fill="none" vector-effect="none" points="100,85 93,85 " />
<polyline fill="none" vector-effect="none" points="100,60 93,60 " />
<polyline fill="none" vector-effect="none" points="100,48 93,48 " />
<polyline fill="none" vector-effect="none" points="100,36 93,36 " />
<polyline fill="none" vector-effect="none" points="100,23 93,23 " />
<polyline fill="none" vector-effect="none" points="100,381 88,381 " />
<polyline fill="none" vector-effect="none" points="100,319 88,319 " />
<polyline fill="none" vector-effect="none" points="100,258 88,258 " />
<polyline fill="none" vector-effect="none" points="100,196 88,196 " />
<polyline fill="none" vector-effect="none" points="100,134 88,134 " />
<polyline fill="none" vector-effect="none" points="100,73 88,73 " />
<polyline fill="none" vector-effect="none" points="100,11 88,11 " />
</g>

<g fill="none" stroke="#000000" stroke-opacity="1" stroke-width="1" stroke-linecap="square" stroke-linejoin="bevel" transform="matrix(1,0,0,1,0,0)"
font-family=".AppleSystemUIFont" font-size="18.6667" font-weight="400" font-style="normal" 
>
<polyline fill="none" vector-effect="none" points="100,11 100,380 " />
</g>

<g fill="none" stroke="#000000" stroke-opacity="1" stroke-width="1" stroke-linecap="square" stroke-linejoin="bevel" transform="matrix(1,0,0,1,0,0)"
font-family=".AppleSystemUIFont" font-size="18.6667" font-weight="400" font-style="normal" 
>
</g>

<g fill="none" stroke="#000000" stroke-opacity="1" stroke-width="1" stroke-linecap="square" stroke-linejoin="bevel" transform="matrix(1,0,0,1,0,0)"
font-family=".AppleSystemUIFont" font-size="17.3333" font-weight="400" font-style="normal" 
>
</g>

<g fill="none" stroke="#000000" stroke-opacity="0.847059" stroke-width="1" stroke-linecap="square" stroke-linejoin="bevel" transform="matrix(1,0,0,1,93,383)"
font-family=".AppleSystemUIFont" font-size="18.6667" font-weight="400" font-style="normal" 
>
</g>

<g fill="none" stroke="#000000" stroke-opacity="1" stroke-width="1" stroke-linecap="square" stroke-linejoin="bevel" transform="matrix(1,0,0,1,93,383)"
font-family=".AppleSystemUIFont" font-size="18.6667" font-weight="700" font-style="normal" 
>
<text fill="#000000" fill-opacity="1" stroke="none" xml:space="preserve" x="247.797" y="55" font-family=".AppleSystemUIFont" font-size="18.6667" font-weight="700" font-style="normal" 
 >V (mL)</text>
</g>

<g fill="none" stroke="#000000" stroke-opacity="0.847059" stroke-width="1" stroke-linecap="square" stroke-linejoin="bevel" transform="matrix(1,0,0,1,93,383)"
font-family=".AppleSystemUIFont" font-size="18.6667" font-weight="400" font-style="normal" 
>
</g>

<g fill="none" stroke="#000000" stroke-opacity="1" stroke-width="1" stroke-linecap="square" stroke-linejoin="bevel" transform="matrix(1,0,0,1,0,0)"
font-family=".AppleSystemUIFont" font-size="17.3333" font-weight="400" font-style="normal" 
>
</g>

<g fill="none" stroke="#000000" stroke-opacity="1" stroke-width="1" stroke-linecap="square" stroke-linejoin="bevel" transform="matrix(1,0,0,1,0,0)"
font-family=".AppleSystemUIFont" font-size="18.6667" font-weight="400" font-style="normal" 
>
</g>

<g fill="none" stroke="#000000" stroke-opacity="0.847059" stroke-width="1" stroke-linecap="square" stroke-linejoin="bevel" transform="matrix(1,0,0,1,0,0)"
font-family=".AppleSystemUIFont" font-size="18.6667" font-weight="400" font-style="normal" 
>
</g>

<g fill="none" stroke="#000000" stroke-opacity="0.847059" stroke-width="1" stroke-linecap="square" stroke-linejoin="bevel" transform="matrix(1,0,0,1,93,401)"
font-family=".AppleSystemUIFont" font-size="18.6667" font-weight="400" font-style="normal" 
>
<text fill="#000000" fill-opacity="0.847059" stroke="none" xml:space="preserve" x="0" y="15.3594" font-family=".AppleSystemUIFont" font-size="18.6667" font-weight="400" font-style="normal" 
 >0</text>
</g>

<g fill="none" stroke="#000000" stroke-opacity="0.847059" stroke-width="1" stroke-linecap="square" stroke-linejoin="bevel" transform="matrix(1,0,0,1,93,401)"
font-family=".AppleSystemUIFont" font-size="18.6667" font-weight="400" font-style="normal" 
>
</g>

<g fill="none" stroke="#000000" stroke-opacity="0.847059" stroke-width="1" stroke-linecap="square" stroke-linejoin="bevel" transform="matrix(1,0,0,1,0,0)"
font-family=".AppleSystemUIFont" font-size="18.6667" font-weight="400" font-style="normal" 
>
</g>

<g fill="none" stroke="#000000" stroke-opacity="0.847059" stroke-width="1" stroke-linecap="square" stroke-linejoin="bevel" transform="matrix(1,0,0,1,169,401)"
font-family=".AppleSystemUIFont" font-size="18.6667" font-weight="400" font-style="normal" 
>
<text fill="#000000" fill-opacity="0.847059" stroke="none" xml:space="preserve" x="0" y="15.3594" font-family=".AppleSystemUIFont" font-size="18.6667" font-weight="400" font-style="normal" 
 >200</text>
</g>

<g fill="none" stroke="#000000" stroke-opacity="0.847059" stroke-width="1" stroke-linecap="square" stroke-linejoin="bevel" transform="matrix(1,0,0,1,169,401)"
font-family=".AppleSystemUIFont" font-size="18.6667" font-weight="400" font-style="normal" 
>
</g>

<g fill="none" stroke="#000000" stroke-opacity="0.847059" stroke-width="1" stroke-linecap="square" stroke-linejoin="bevel" transform="matrix(1,0,0,1,0,0)"
font-family=".AppleSystemUIFont" font-size="18.6667" font-weight="400" font-style="normal" 
>
</g>

<g fill="none" stroke="#000000" stroke-opacity="0.847059" stroke-width="1" stroke-linecap="square" stroke-linejoin="bevel" transform="matrix(1,0,0,1,256,401)"
font-family=".AppleSystemUIFont" font-size="18.6667" font-weight="400" font-style="normal" 
>
<text fill="#000000" fill-opacity="0.847059" stroke="none" xml:space="preserve" x="0" y="15.3594" font-family=".AppleSystemUIFont" font-size="18.6667" font-weight="400" font-style="normal" 
 >400</text>
</g>

<g fill="none" stroke="#000000" stroke-opacity="0.847059" stroke-width="1" stroke-linecap="square" stroke-linejoin="bevel" transform="matrix(1,0,0,1,256,401)"
font-family=".AppleSystemUIFont" font-size="18.6667" font-weight="400" font-style="normal" 
>
</g>

<g fill="none" stroke="#000000" stroke-opacity="0.847059" stroke-width="1" stroke-linecap="square" stroke-linejoin="bevel" transform="matrix(1,0,0,1,0,0)"
font-family=".AppleSystemUIFont" font-size="18.6667" font-weight="400" font-style="normal" 
>
</g>

<g fill="none" stroke="#000000" stroke-opacity="0.847059" stroke-width="1" stroke-linecap="square" stroke-linejoin="bevel" transform="matrix(1,0,0,1,344,401)"
font-family=".AppleSystemUIFont" font-size="18.6667" font-weight="400" font-style="normal" 
>
<text fill="#000000" fill-opacity="0.847059" stroke="none" xml:space="preserve" x="0" y="15.3594" font-family=".AppleSystemUIFont" font-size="18.6667" font-weight="400" font-style="normal" 
 >600</text>
</g>

<g fill="none" stroke="#000000" stroke-opacity="0.847059" stroke-width="1" stroke-linecap="square" stroke-linejoin="bevel" transform="matrix(1,0,0,1,344,401)"
font-family=".AppleSystemUIFont" font-size="18.6667" font-weight="400" font-style="normal" 
>
</g>

<g fill="none" stroke="#000000" stroke-opacity="0.847059" stroke-width="1" stroke-linecap="square" stroke-linejoin="bevel" transform="matrix(1,0,0,1,0,0)"
font-family=".AppleSystemUIFont" font-size="18.6667" font-weight="400" font-style="normal" 
>
</g>

<g fill="none" stroke="#000000" stroke-opacity="0.847059" stroke-width="1" stroke-linecap="square" stroke-linejoin="bevel" transform="matrix(1,0,0,1,430,401)"
font-family=".AppleSystemUIFont" font-size="18.6667" font-weight="400" font-style="normal" 
>
<text fill="#000000" fill-opacity="0.847059" stroke="none" xml:space="preserve" x="0" y="15.3594" font-family=".AppleSystemUIFont" font-size="18.6667" font-weight="400" font-style="normal" 
 >800</text>
</g>

<g fill="none" stroke="#000000" stroke-opacity="0.847059" stroke-width="1" stroke-linecap="square" stroke-linejoin="bevel" transform="matrix(1,0,0,1,430,401)"
font-family=".AppleSystemUIFont" font-size="18.6667" font-weight="400" font-style="normal" 
>
</g>

<g fill="none" stroke="#000000" stroke-opacity="0.847059" stroke-width="1" stroke-linecap="square" stroke-linejoin="bevel" transform="matrix(1,0,0,1,0,0)"
font-family=".AppleSystemUIFont" font-size="18.6667" font-weight="400" font-style="normal" 
>
</g>

<g fill="none" stroke="#000000" stroke-opacity="0.847059" stroke-width="1" stroke-linecap="square" stroke-linejoin="bevel" transform="matrix(1,0,0,1,510,401)"
font-family=".AppleSystemUIFont" font-size="18.6667" font-weight="400" font-style="normal" 
>
<text fill="#000000" fill-opacity="0.847059" stroke="none" xml:space="preserve" x="0" y="15.3594" font-family=".AppleSystemUIFont" font-size="18.6667" font-weight="400" font-style="normal" 
 >1,000</text>
</g>

<g fill="none" stroke="#000000" stroke-opacity="0.847059" stroke-width="1" stroke-linecap="square" stroke-linejoin="bevel" transform="matrix(1,0,0,1,510,401)"
font-family=".AppleSystemUIFont" font-size="18.6667" font-weight="400" font-style="normal" 
>
</g>

<g fill="none" stroke="#000000" stroke-opacity="0.847059" stroke-width="1" stroke-linecap="square" stroke-linejoin="bevel" transform="matrix(1,0,0,1,0,0)"
font-family=".AppleSystemUIFont" font-size="18.6667" font-weight="400" font-style="normal" 
>
</g>

<g fill="none" stroke="#000000" stroke-opacity="0.847059" stroke-width="1" stroke-linecap="square" stroke-linejoin="bevel" transform="matrix(1,0,0,1,598,401)"
font-family=".AppleSystemUIFont" font-size="18.6667" font-weight="400" font-style="normal" 
>
<text fill="#000000" fill-opacity="0.847059" stroke="none" xml:space="preserve" x="0" y="15.3594" font-family=".AppleSystemUIFont" font-size="18.6667" font-weight="400" font-style="normal" 
 >1,200</text>
</g>

<g fill="none" stroke="#000000" stroke-opacity="0.847059" stroke-width="1" stroke-linecap="square" stroke-linejoin="bevel" transform="matrix(1,0,0,1,598,401)"
font-family=".AppleSystemUIFont" font-size="18.6667" font-weight="400" font-style="normal" 
>
</g>

<g fill="none" stroke="#000000" stroke-opacity="0.847059" stroke-width="1" stroke-linecap="square" stroke-linejoin="bevel" transform="matrix(1,0,0,1,0,0)"
font-family=".AppleSystemUIFont" font-size="18.6667" font-weight="400" font-style="normal" 
>
</g>

<g fill="none" stroke="#000000" stroke-opacity="1" stroke-width="1" stroke-linecap="square" stroke-linejoin="bevel" transform="matrix(1,0,0,1,0,0)"
font-family=".AppleSystemUIFont" font-size="18.6667" font-weight="400" font-style="normal" 
>
<polyline fill="none" vector-effect="none" points="123,383 123,390 " />
<polyline fill="none" vector-effect="none" points="166,383 166,390 " />
<polyline fill="none" vector-effect="none" points="210,383 210,390 " />
<polyline fill="none" vector-effect="none" points="253,383 253,390 " />
<polyline fill="none" vector-effect="none" points="297,383 297,390 " />
<polyline fill="none" vector-effect="none" points="340,383 340,390 " />
<polyline fill="none" vector-effect="none" points="384,383 384,390 " />
<polyline fill="none" vector-effect="none" points="427,383 427,390 " />
<polyline fill="none" vector-effect="none" points="471,383 471,390 " />
<polyline fill="none" vector-effect="none" points="514,383 514,390 " />
<polyline fill="none" vector-effect="none" points="558,383 558,390 " />
<polyline fill="none" vector-effect="none" points="601,383 601,390 " />
<polyline fill="none" vector-effect="none" points="145,383 145,390 " />
<polyline fill="none" vector-effect="none" points="232,383 232,390 " />
<polyline fill="none" vector-effect="none" points="319,383 319,390 " />
<polyline fill="none" vector-effect="none" points="406,383 406,390 " />
<polyline fill="none" vector-effect="none" points="493,383 493,390 " />
<polyline fill="none" vector-effect="none" points="580,383 580,390 " />
<polyline fill="none" vector-effect="none" points="101,383 101,395 " />
<polyline fill="none" vector-effect="none" points="188,383 188,395 " />
<polyline fill="none" vector-effect="none" points="275,383 275,395 " />
<polyline fill="none" vector-effect="none" points="362,383 362,395 " />
<polyline fill="none" vector-effect="none" points="449,383 449,395 " />
<polyline fill="none" vector-effect="none" points="536,383 536,395 " />
<polyline fill="none" vector-effect="none" points="623,383 623,395 " />
</g>

<g fill="none" stroke="#000000" stroke-opacity="1" stroke-width="1" stroke-linecap="square" stroke-linejoin="bevel" transform="matrix(1,0,0,1,0,0)"
font-family=".AppleSystemUIFont" font-size="18.6667" font-weight="400" font-style="normal" 
>
<polyline fill="none" vector-effect="none" points="101,383 621,383 " />
</g>

<g fill="none" stroke="#000000" stroke-opacity="1" stroke-width="1" stroke-linecap="square" stroke-linejoin="bevel" transform="matrix(1,0,0,1,0,0)"
font-family=".AppleSystemUIFont" font-size="18.6667" font-weight="400" font-style="normal" 
>
</g>

<g fill="none" stroke="#000000" stroke-opacity="1" stroke-width="1" stroke-linecap="square" stroke-linejoin="bevel" transform="matrix(1,0,0,1,0,0)"
font-family=".AppleSystemUIFont" font-size="17.3333" font-weight="400" font-style="normal" 
>
</g>

<g fill="#ffffff" fill-opacity="1" stroke="none" transform="matrix(1,0,0,1,0,0)"
font-family=".AppleSystemUIFont" font-size="17.3333" font-weight="400" font-style="normal" 
>
<rect x="101" y="11" width="522" height="370"/>
</g>

<g fill="none" stroke="#000000" stroke-opacity="1" stroke-width="1" stroke-linecap="square" stroke-linejoin="bevel" transform="matrix(1,0,0,1,0,0)"
font-family=".AppleSystemUIFont" font-size="17.3333" font-weight="400" font-style="normal" 
>
</g>

<g fill="none" stroke="#000000" stroke-opacity="1" stroke-width="1" stroke-linecap="square" stroke-linejoin="bevel" transform="matrix(1,0,0,1,0,0)"
font-family=".AppleSystemUIFont" font-size="17.3333" font-weight="400" font-style="normal" 
>
</g>

<g fill="none" stroke="#000000" stroke-opacity="1" stroke-width="1" stroke-linecap="square" stroke-linejoin="bevel" transform="matrix(1,0,0,1,0,0)"
font-family=".AppleSystemUIFont" font-size="17.3333" font-weight="400" font-style="normal" 
>
</g>

<g fill="none" stroke="#000000" stroke-opacity="1" stroke-width="1" stroke-linecap="square" stroke-linejoin="bevel" transform="matrix(1,0,0,1,0,0)"
font-family=".AppleSystemUIFont" font-size="17.3333" font-weight="400" font-style="normal" 
>
</g>

<g fill="#000000" fill-opacity="1" stroke="#000000" stroke-opacity="1" stroke-width="1" stroke-linecap="square" stroke-linejoin="bevel" transform="matrix(1,0,0,1,0,0)"
font-family=".AppleSystemUIFont" font-size="17.3333" font-weight="400" font-style="normal" 
>
<circle vector-effect="non-scaling-stroke" cx="536" cy="311" r="7"/>
<circle vector-effect="non-scaling-stroke" cx="449" cy="298" r="7"/>
<circle vector-effect="non-scaling-stroke" cx="406" cy="289" r="7"/>
<circle vector-effect="non-scaling-stroke" cx="362" cy="261" r="7"/>
<circle vector-effect="non-scaling-stroke" cx="319" cy="237" r="7"/>
<circle vector-effect="non-scaling-stroke" cx="275" cy="219" r="7"/>
<circle vector-effect="non-scaling-stroke" cx="232" cy="165" r="7"/>
<circle vector-effect="non-scaling-stroke" cx="188" cy="48" r="7"/>
</g>

<g fill="none" stroke="#000000" stroke-opacity="1" stroke-width="1" stroke-linecap="square" stroke-linejoin="bevel" transform="matrix(1,0,0,1,0,0)"
font-family=".AppleSystemUIFont" font-size="17.3333" font-weight="400" font-style="normal" 
>
</g>

<g fill="none" stroke="#000000" stroke-opacity="1" stroke-width="1" stroke-linecap="square" stroke-linejoin="bevel" transform="matrix(1,0,0,1,0,0)"
font-family=".AppleSystemUIFont" font-size="17.3333" font-weight="400" font-style="normal" 
>
</g>

<g fill="none" stroke="#000000" stroke-opacity="0.847059" stroke-width="1" stroke-linecap="round" stroke-linejoin="round" transform="matrix(1,0,0,1,0,0)"
font-family=".AppleSystemUIFont" font-size="17.3333" font-weight="400" font-style="normal" 
>
</g>

<g fill="none" stroke="#000000" stroke-opacity="1" stroke-width="1" stroke-linecap="square" stroke-linejoin="bevel" transform="matrix(1,0,0,1,0,0)"
font-family=".AppleSystemUIFont" font-size="17.3333" font-weight="400" font-style="normal" 
>
</g>

<g fill="none" stroke="#000000" stroke-opacity="1" stroke-width="1" stroke-linecap="square" stroke-linejoin="bevel" transform="matrix(1,0,0,1,0,0)"
font-family=".AppleSystemUIFont" font-size="17.3333" font-weight="400" font-style="normal" 
>
</g>
</g>
</svg>
