<?xml version="1.0" encoding="UTF-8" standalone="no"?>
<svg width="172.244mm" height="117.475mm"
 viewBox="0 0 651 444"
 xmlns="http://www.w3.org/2000/svg" xmlns:xlink="http://www.w3.org/1999/xlink"  version="1.2" baseProfile="tiny">
<title>Graph1</title>
<desc>Generated with Qt</desc>
<defs>
</defs>
<g fill="none" stroke="black" stroke-width="1" fill-rule="evenodd" stroke-linecap="square" stroke-linejoin="bevel" >

<g fill="#ffffff" fill-opacity="1" stroke="none" transform="matrix(1,0,0,1,0,0)"
font-family=".AppleSystemUIFont" font-size="17.3333" font-weight="400" font-style="normal" 
>
<rect x="0" y="0" width="651" height="444"/>
</g>

<g fill="none" stroke="#000000" stroke-opacity="1" stroke-width="1" stroke-linecap="square" stroke-linejoin="bevel" transform="matrix(1,0,0,1,0,0)"
font-family=".AppleSystemUIFont" font-size="17.3333" font-weight="400" font-style="normal" 
>
</g>

<g fill="#ffffff" fill-opacity="1" stroke="none" transform="matrix(1,0,0,1,0,0)"
font-family=".AppleSystemUIFont" font-size="17.3333" font-weight="400" font-style="normal" 
>
<rect x="1" y="2" width="645" height="438"/>
</g>

<g fill="none" stroke="#000000" stroke-opacity="1" stroke-width="1" stroke-linecap="square" stroke-linejoin="bevel" transform="matrix(1,0,0,1,0,0)"
font-family=".AppleSystemUIFont" font-size="17.3333" font-weight="400" font-style="normal" 
>
</g>

<g fill="none" stroke="#000000" stroke-opacity="1" stroke-width="1" stroke-linecap="square" stroke-linejoin="bevel" transform="matrix(1,0,0,1,0,0)"
font-family=".AppleSystemUIFont" font-size="17.3333" font-weight="400" font-style="normal" 
>
</g>

<g fill="none" stroke="#000000" stroke-opacity="0.847059" stroke-width="1" stroke-linecap="square" stroke-linejoin="bevel" transform="matrix(0,-1,1,0,1,376)"
font-family=".AppleSystemUIFont" font-size="24" font-weight="400" font-style="normal" 
>
</g>

<g fill="none" stroke="#000000" stroke-opacity="1" stroke-width="1" stroke-linecap="square" stroke-linejoin="bevel" transform="matrix(0,-1,1,0,1,376)"
font-family=".AppleSystemUIFont" font-size="24" font-weight="700" font-style="normal" 
>
<text fill="#000000" fill-opacity="1" stroke="none" xml:space="preserve" x="149.906" y="23.2031" font-family=".AppleSystemUIFont" font-size="24" font-weight="700" font-style="normal" 
 >P (torr)</text>
</g>

<g fill="none" stroke="#000000" stroke-opacity="0.847059" stroke-width="1" stroke-linecap="square" stroke-linejoin="bevel" transform="matrix(0,-1,1,0,1,376)"
font-family=".AppleSystemUIFont" font-size="24" font-weight="400" font-style="normal" 
>
</g>

<g fill="none" stroke="#000000" stroke-opacity="1" stroke-width="1" stroke-linecap="square" stroke-linejoin="bevel" transform="matrix(1,0,0,1,0,0)"
font-family=".AppleSystemUIFont" font-size="17.3333" font-weight="400" font-style="normal" 
>
</g>

<g fill="none" stroke="#000000" stroke-opacity="1" stroke-width="1" stroke-linecap="square" stroke-linejoin="bevel" transform="matrix(1,0,0,1,0,0)"
font-family=".AppleSystemUIFont" font-size="24" font-weight="400" font-style="normal" 
>
</g>

<g fill="none" stroke="#000000" stroke-opacity="0.847059" stroke-width="1" stroke-linecap="square" stroke-linejoin="bevel" transform="matrix(1,0,0,1,0,0)"
font-family=".AppleSystemUIFont" font-size="24" font-weight="400" font-style="normal" 
>
</g>

<g fill="none" stroke="#000000" stroke-opacity="0.847059" stroke-width="1" stroke-linecap="square" stroke-linejoin="bevel" transform="matrix(1,0,0,1,79,357)"
font-family=".AppleSystemUIFont" font-size="24" font-weight="400" font-style="normal" 
>
<text fill="#000000" fill-opacity="0.847059" stroke="none" xml:space="preserve" x="0" y="20.2031" font-family=".AppleSystemUIFont" font-size="24" font-weight="400" font-style="normal" 
 >0</text>
</g>

<g fill="none" stroke="#000000" stroke-opacity="0.847059" stroke-width="1" stroke-linecap="square" stroke-linejoin="bevel" transform="matrix(1,0,0,1,79,357)"
font-family=".AppleSystemUIFont" font-size="24" font-weight="400" font-style="normal" 
>
</g>

<g fill="none" stroke="#000000" stroke-opacity="0.847059" stroke-width="1" stroke-linecap="square" stroke-linejoin="bevel" transform="matrix(1,0,0,1,0,0)"
font-family=".AppleSystemUIFont" font-size="24" font-weight="400" font-style="normal" 
>
</g>

<g fill="none" stroke="#000000" stroke-opacity="0.847059" stroke-width="1" stroke-linecap="square" stroke-linejoin="bevel" transform="matrix(1,0,0,1,51,298)"
font-family=".AppleSystemUIFont" font-size="24" font-weight="400" font-style="normal" 
>
<text fill="#000000" fill-opacity="0.847059" stroke="none" xml:space="preserve" x="0" y="20.2031" font-family=".AppleSystemUIFont" font-size="24" font-weight="400" font-style="normal" 
 >500</text>
</g>

<g fill="none" stroke="#000000" stroke-opacity="0.847059" stroke-width="1" stroke-linecap="square" stroke-linejoin="bevel" transform="matrix(1,0,0,1,51,298)"
font-family=".AppleSystemUIFont" font-size="24" font-weight="400" font-style="normal" 
>
</g>

<g fill="none" stroke="#000000" stroke-opacity="0.847059" stroke-width="1" stroke-linecap="square" stroke-linejoin="bevel" transform="matrix(1,0,0,1,0,0)"
font-family=".AppleSystemUIFont" font-size="24" font-weight="400" font-style="normal" 
>
</g>

<g fill="none" stroke="#000000" stroke-opacity="0.847059" stroke-width="1" stroke-linecap="square" stroke-linejoin="bevel" transform="matrix(1,0,0,1,37,239)"
font-family=".AppleSystemUIFont" font-size="24" font-weight="400" font-style="normal" 
>
<text fill="#000000" fill-opacity="0.847059" stroke="none" xml:space="preserve" x="0" y="20.2031" font-family=".AppleSystemUIFont" font-size="24" font-weight="400" font-style="normal" 
 >1,000</text>
</g>

<g fill="none" stroke="#000000" stroke-opacity="0.847059" stroke-width="1" stroke-linecap="square" stroke-linejoin="bevel" transform="matrix(1,0,0,1,37,239)"
font-family=".AppleSystemUIFont" font-size="24" font-weight="400" font-style="normal" 
>
</g>

<g fill="none" stroke="#000000" stroke-opacity="0.847059" stroke-width="1" stroke-linecap="square" stroke-linejoin="bevel" transform="matrix(1,0,0,1,0,0)"
font-family=".AppleSystemUIFont" font-size="24" font-weight="400" font-style="normal" 
>
</g>

<g fill="none" stroke="#000000" stroke-opacity="0.847059" stroke-width="1" stroke-linecap="square" stroke-linejoin="bevel" transform="matrix(1,0,0,1,37,181)"
font-family=".AppleSystemUIFont" font-size="24" font-weight="400" font-style="normal" 
>
<text fill="#000000" fill-opacity="0.847059" stroke="none" xml:space="preserve" x="0" y="20.2031" font-family=".AppleSystemUIFont" font-size="24" font-weight="400" font-style="normal" 
 >1,500</text>
</g>

<g fill="none" stroke="#000000" stroke-opacity="0.847059" stroke-width="1" stroke-linecap="square" stroke-linejoin="bevel" transform="matrix(1,0,0,1,37,181)"
font-family=".AppleSystemUIFont" font-size="24" font-weight="400" font-style="normal" 
>
</g>

<g fill="none" stroke="#000000" stroke-opacity="0.847059" stroke-width="1" stroke-linecap="square" stroke-linejoin="bevel" transform="matrix(1,0,0,1,0,0)"
font-family=".AppleSystemUIFont" font-size="24" font-weight="400" font-style="normal" 
>
</g>

<g fill="none" stroke="#000000" stroke-opacity="0.847059" stroke-width="1" stroke-linecap="square" stroke-linejoin="bevel" transform="matrix(1,0,0,1,33,121)"
font-family=".AppleSystemUIFont" font-size="24" font-weight="400" font-style="normal" 
>
<text fill="#000000" fill-opacity="0.847059" stroke="none" xml:space="preserve" x="0" y="20.2031" font-family=".AppleSystemUIFont" font-size="24" font-weight="400" font-style="normal" 
 >2,000</text>
</g>

<g fill="none" stroke="#000000" stroke-opacity="0.847059" stroke-width="1" stroke-linecap="square" stroke-linejoin="bevel" transform="matrix(1,0,0,1,33,121)"
font-family=".AppleSystemUIFont" font-size="24" font-weight="400" font-style="normal" 
>
</g>

<g fill="none" stroke="#000000" stroke-opacity="0.847059" stroke-width="1" stroke-linecap="square" stroke-linejoin="bevel" transform="matrix(1,0,0,1,0,0)"
font-family=".AppleSystemUIFont" font-size="24" font-weight="400" font-style="normal" 
>
</g>

<g fill="none" stroke="#000000" stroke-opacity="0.847059" stroke-width="1" stroke-linecap="square" stroke-linejoin="bevel" transform="matrix(1,0,0,1,33,62)"
font-family=".AppleSystemUIFont" font-size="24" font-weight="400" font-style="normal" 
>
<text fill="#000000" fill-opacity="0.847059" stroke="none" xml:space="preserve" x="0" y="20.2031" font-family=".AppleSystemUIFont" font-size="24" font-weight="400" font-style="normal" 
 >2,500</text>
</g>

<g fill="none" stroke="#000000" stroke-opacity="0.847059" stroke-width="1" stroke-linecap="square" stroke-linejoin="bevel" transform="matrix(1,0,0,1,33,62)"
font-family=".AppleSystemUIFont" font-size="24" font-weight="400" font-style="normal" 
>
</g>

<g fill="none" stroke="#000000" stroke-opacity="0.847059" stroke-width="1" stroke-linecap="square" stroke-linejoin="bevel" transform="matrix(1,0,0,1,0,0)"
font-family=".AppleSystemUIFont" font-size="24" font-weight="400" font-style="normal" 
>
</g>

<g fill="none" stroke="#000000" stroke-opacity="0.847059" stroke-width="1" stroke-linecap="square" stroke-linejoin="bevel" transform="matrix(1,0,0,1,33,3)"
font-family=".AppleSystemUIFont" font-size="24" font-weight="400" font-style="normal" 
>
<text fill="#000000" fill-opacity="0.847059" stroke="none" xml:space="preserve" x="0" y="20.2031" font-family=".AppleSystemUIFont" font-size="24" font-weight="400" font-style="normal" 
 >3,000</text>
</g>

<g fill="none" stroke="#000000" stroke-opacity="0.847059" stroke-width="1" stroke-linecap="square" stroke-linejoin="bevel" transform="matrix(1,0,0,1,33,3)"
font-family=".AppleSystemUIFont" font-size="24" font-weight="400" font-style="normal" 
>
</g>

<g fill="none" stroke="#000000" stroke-opacity="0.847059" stroke-width="1" stroke-linecap="square" stroke-linejoin="bevel" transform="matrix(1,0,0,1,0,0)"
font-family=".AppleSystemUIFont" font-size="24" font-weight="400" font-style="normal" 
>
</g>

<g fill="none" stroke="#000000" stroke-opacity="1" stroke-width="1" stroke-linecap="square" stroke-linejoin="bevel" transform="matrix(1,0,0,1,0,0)"
font-family=".AppleSystemUIFont" font-size="24" font-weight="400" font-style="normal" 
>
<polyline fill="none" vector-effect="none" points="116,355 109,355 " />
<polyline fill="none" vector-effect="none" points="116,343 109,343 " />
<polyline fill="none" vector-effect="none" points="116,332 109,332 " />
<polyline fill="none" vector-effect="none" points="116,320 109,320 " />
<polyline fill="none" vector-effect="none" points="116,296 109,296 " />
<polyline fill="none" vector-effect="none" points="116,284 109,284 " />
<polyline fill="none" vector-effect="none" points="116,273 109,273 " />
<polyline fill="none" vector-effect="none" points="116,261 109,261 " />
<polyline fill="none" vector-effect="none" points="116,237 109,237 " />
<polyline fill="none" vector-effect="none" points="116,225 109,225 " />
<polyline fill="none" vector-effect="none" points="116,214 109,214 " />
<polyline fill="none" vector-effect="none" points="116,202 109,202 " />
<polyline fill="none" vector-effect="none" points="116,178 109,178 " />
<polyline fill="none" vector-effect="none" points="116,166 109,166 " />
<polyline fill="none" vector-effect="none" points="116,155 109,155 " />
<polyline fill="none" vector-effect="none" points="116,143 109,143 " />
<polyline fill="none" vector-effect="none" points="116,119 109,119 " />
<polyline fill="none" vector-effect="none" points="116,107 109,107 " />
<polyline fill="none" vector-effect="none" points="116,96 109,96 " />
<polyline fill="none" vector-effect="none" points="116,84 109,84 " />
<polyline fill="none" vector-effect="none" points="116,60 109,60 " />
<polyline fill="none" vector-effect="none" points="116,48 109,48 " />
<polyline fill="none" vector-effect="none" points="116,37 109,37 " />
<polyline fill="none" vector-effect="none" points="116,25 109,25 " />
<polyline fill="none" vector-effect="none" points="116,367 104,367 " />
<polyline fill="none" vector-effect="none" points="116,308 104,308 " />
<polyline fill="none" vector-effect="none" points="116,249 104,249 " />
<polyline fill="none" vector-effect="none" points="116,190 104,190 " />
<polyline fill="none" vector-effect="none" points="116,131 104,131 " />
<polyline fill="none" vector-effect="none" points="116,72 104,72 " />
<polyline fill="none" vector-effect="none" points="116,13 104,13 " />
</g>

<g fill="none" stroke="#000000" stroke-opacity="1" stroke-width="1" stroke-linecap="square" stroke-linejoin="bevel" transform="matrix(1,0,0,1,0,0)"
font-family=".AppleSystemUIFont" font-size="24" font-weight="400" font-style="normal" 
>
<polyline fill="none" vector-effect="none" points="116,13 116,365 " />
</g>

<g fill="none" stroke="#000000" stroke-opacity="1" stroke-width="1" stroke-linecap="square" stroke-linejoin="bevel" transform="matrix(1,0,0,1,0,0)"
font-family=".AppleSystemUIFont" font-size="24" font-weight="400" font-style="normal" 
>
</g>

<g fill="none" stroke="#000000" stroke-opacity="1" stroke-width="1" stroke-linecap="square" stroke-linejoin="bevel" transform="matrix(1,0,0,1,0,0)"
font-family=".AppleSystemUIFont" font-size="17.3333" font-weight="400" font-style="normal" 
>
</g>

<g fill="none" stroke="#000000" stroke-opacity="0.847059" stroke-width="1" stroke-linecap="square" stroke-linejoin="bevel" transform="matrix(1,0,0,1,108,368)"
font-family=".AppleSystemUIFont" font-size="24" font-weight="400" font-style="normal" 
>
</g>

<g fill="none" stroke="#000000" stroke-opacity="1" stroke-width="1" stroke-linecap="square" stroke-linejoin="bevel" transform="matrix(1,0,0,1,108,368)"
font-family=".AppleSystemUIFont" font-size="24" font-weight="700" font-style="normal" 
>
<text fill="#000000" fill-opacity="1" stroke="none" xml:space="preserve" x="233.297" y="66.9375" font-family=".AppleSystemUIFont" font-size="24" font-weight="700" font-style="normal" 
 >V (mL)</text>
</g>

<g fill="none" stroke="#000000" stroke-opacity="0.847059" stroke-width="1" stroke-linecap="square" stroke-linejoin="bevel" transform="matrix(1,0,0,1,108,368)"
font-family=".AppleSystemUIFont" font-size="24" font-weight="400" font-style="normal" 
>
</g>

<g fill="none" stroke="#000000" stroke-opacity="1" stroke-width="1" stroke-linecap="square" stroke-linejoin="bevel" transform="matrix(1,0,0,1,0,0)"
font-family=".AppleSystemUIFont" font-size="17.3333" font-weight="400" font-style="normal" 
>
</g>

<g fill="none" stroke="#000000" stroke-opacity="1" stroke-width="1" stroke-linecap="square" stroke-linejoin="bevel" transform="matrix(1,0,0,1,0,0)"
font-family=".AppleSystemUIFont" font-size="24" font-weight="400" font-style="normal" 
>
</g>

<g fill="none" stroke="#000000" stroke-opacity="0.847059" stroke-width="1" stroke-linecap="square" stroke-linejoin="bevel" transform="matrix(1,0,0,1,0,0)"
font-family=".AppleSystemUIFont" font-size="24" font-weight="400" font-style="normal" 
>
</g>

<g fill="none" stroke="#000000" stroke-opacity="0.847059" stroke-width="1" stroke-linecap="square" stroke-linejoin="bevel" transform="matrix(1,0,0,1,108,386)"
font-family=".AppleSystemUIFont" font-size="24" font-weight="400" font-style="normal" 
>
<text fill="#000000" fill-opacity="0.847059" stroke="none" xml:space="preserve" x="0" y="20.2031" font-family=".AppleSystemUIFont" font-size="24" font-weight="400" font-style="normal" 
 >0</text>
</g>

<g fill="none" stroke="#000000" stroke-opacity="0.847059" stroke-width="1" stroke-linecap="square" stroke-linejoin="bevel" transform="matrix(1,0,0,1,108,386)"
font-family=".AppleSystemUIFont" font-size="24" font-weight="400" font-style="normal" 
>
</g>

<g fill="none" stroke="#000000" stroke-opacity="0.847059" stroke-width="1" stroke-linecap="square" stroke-linejoin="bevel" transform="matrix(1,0,0,1,0,0)"
font-family=".AppleSystemUIFont" font-size="24" font-weight="400" font-style="normal" 
>
</g>

<g fill="none" stroke="#000000" stroke-opacity="0.847059" stroke-width="1" stroke-linecap="square" stroke-linejoin="bevel" transform="matrix(1,0,0,1,178,386)"
font-family=".AppleSystemUIFont" font-size="24" font-weight="400" font-style="normal" 
>
<text fill="#000000" fill-opacity="0.847059" stroke="none" xml:space="preserve" x="0" y="20.2031" font-family=".AppleSystemUIFont" font-size="24" font-weight="400" font-style="normal" 
 >200</text>
</g>

<g fill="none" stroke="#000000" stroke-opacity="0.847059" stroke-width="1" stroke-linecap="square" stroke-linejoin="bevel" transform="matrix(1,0,0,1,178,386)"
font-family=".AppleSystemUIFont" font-size="24" font-weight="400" font-style="normal" 
>
</g>

<g fill="none" stroke="#000000" stroke-opacity="0.847059" stroke-width="1" stroke-linecap="square" stroke-linejoin="bevel" transform="matrix(1,0,0,1,0,0)"
font-family=".AppleSystemUIFont" font-size="24" font-weight="400" font-style="normal" 
>
</g>

<g fill="none" stroke="#000000" stroke-opacity="0.847059" stroke-width="1" stroke-linecap="square" stroke-linejoin="bevel" transform="matrix(1,0,0,1,261,386)"
font-family=".AppleSystemUIFont" font-size="24" font-weight="400" font-style="normal" 
>
<text fill="#000000" fill-opacity="0.847059" stroke="none" xml:space="preserve" x="0" y="20.2031" font-family=".AppleSystemUIFont" font-size="24" font-weight="400" font-style="normal" 
 >400</text>
</g>

<g fill="none" stroke="#000000" stroke-opacity="0.847059" stroke-width="1" stroke-linecap="square" stroke-linejoin="bevel" transform="matrix(1,0,0,1,261,386)"
font-family=".AppleSystemUIFont" font-size="24" font-weight="400" font-style="normal" 
>
</g>

<g fill="none" stroke="#000000" stroke-opacity="0.847059" stroke-width="1" stroke-linecap="square" stroke-linejoin="bevel" transform="matrix(1,0,0,1,0,0)"
font-family=".AppleSystemUIFont" font-size="24" font-weight="400" font-style="normal" 
>
</g>

<g fill="none" stroke="#000000" stroke-opacity="0.847059" stroke-width="1" stroke-linecap="square" stroke-linejoin="bevel" transform="matrix(1,0,0,1,344,386)"
font-family=".AppleSystemUIFont" font-size="24" font-weight="400" font-style="normal" 
>
<text fill="#000000" fill-opacity="0.847059" stroke="none" xml:space="preserve" x="0" y="20.2031" font-family=".AppleSystemUIFont" font-size="24" font-weight="400" font-style="normal" 
 >600</text>
</g>

<g fill="none" stroke="#000000" stroke-opacity="0.847059" stroke-width="1" stroke-linecap="square" stroke-linejoin="bevel" transform="matrix(1,0,0,1,344,386)"
font-family=".AppleSystemUIFont" font-size="24" font-weight="400" font-style="normal" 
>
</g>

<g fill="none" stroke="#000000" stroke-opacity="0.847059" stroke-width="1" stroke-linecap="square" stroke-linejoin="bevel" transform="matrix(1,0,0,1,0,0)"
font-family=".AppleSystemUIFont" font-size="24" font-weight="400" font-style="normal" 
>
</g>

<g fill="none" stroke="#000000" stroke-opacity="0.847059" stroke-width="1" stroke-linecap="square" stroke-linejoin="bevel" transform="matrix(1,0,0,1,426,386)"
font-family=".AppleSystemUIFont" font-size="24" font-weight="400" font-style="normal" 
>
<text fill="#000000" fill-opacity="0.847059" stroke="none" xml:space="preserve" x="0" y="20.2031" font-family=".AppleSystemUIFont" font-size="24" font-weight="400" font-style="normal" 
 >800</text>
</g>

<g fill="none" stroke="#000000" stroke-opacity="0.847059" stroke-width="1" stroke-linecap="square" stroke-linejoin="bevel" transform="matrix(1,0,0,1,426,386)"
font-family=".AppleSystemUIFont" font-size="24" font-weight="400" font-style="normal" 
>
</g>

<g fill="none" stroke="#000000" stroke-opacity="0.847059" stroke-width="1" stroke-linecap="square" stroke-linejoin="bevel" transform="matrix(1,0,0,1,0,0)"
font-family=".AppleSystemUIFont" font-size="24" font-weight="400" font-style="normal" 
>
</g>

<g fill="none" stroke="#000000" stroke-opacity="0.847059" stroke-width="1" stroke-linecap="square" stroke-linejoin="bevel" transform="matrix(1,0,0,1,503,386)"
font-family=".AppleSystemUIFont" font-size="24" font-weight="400" font-style="normal" 
>
<text fill="#000000" fill-opacity="0.847059" stroke="none" xml:space="preserve" x="0" y="20.2031" font-family=".AppleSystemUIFont" font-size="24" font-weight="400" font-style="normal" 
 >1,000</text>
</g>

<g fill="none" stroke="#000000" stroke-opacity="0.847059" stroke-width="1" stroke-linecap="square" stroke-linejoin="bevel" transform="matrix(1,0,0,1,503,386)"
font-family=".AppleSystemUIFont" font-size="24" font-weight="400" font-style="normal" 
>
</g>

<g fill="none" stroke="#000000" stroke-opacity="0.847059" stroke-width="1" stroke-linecap="square" stroke-linejoin="bevel" transform="matrix(1,0,0,1,0,0)"
font-family=".AppleSystemUIFont" font-size="24" font-weight="400" font-style="normal" 
>
</g>

<g fill="none" stroke="#000000" stroke-opacity="0.847059" stroke-width="1" stroke-linecap="square" stroke-linejoin="bevel" transform="matrix(1,0,0,1,586,386)"
font-family=".AppleSystemUIFont" font-size="24" font-weight="400" font-style="normal" 
>
<text fill="#000000" fill-opacity="0.847059" stroke="none" xml:space="preserve" x="0" y="20.2031" font-family=".AppleSystemUIFont" font-size="24" font-weight="400" font-style="normal" 
 >1,200</text>
</g>

<g fill="none" stroke="#000000" stroke-opacity="0.847059" stroke-width="1" stroke-linecap="square" stroke-linejoin="bevel" transform="matrix(1,0,0,1,586,386)"
font-family=".AppleSystemUIFont" font-size="24" font-weight="400" font-style="normal" 
>
</g>

<g fill="none" stroke="#000000" stroke-opacity="0.847059" stroke-width="1" stroke-linecap="square" stroke-linejoin="bevel" transform="matrix(1,0,0,1,0,0)"
font-family=".AppleSystemUIFont" font-size="24" font-weight="400" font-style="normal" 
>
</g>

<g fill="none" stroke="#000000" stroke-opacity="1" stroke-width="1" stroke-linecap="square" stroke-linejoin="bevel" transform="matrix(1,0,0,1,0,0)"
font-family=".AppleSystemUIFont" font-size="24" font-weight="400" font-style="normal" 
>
<polyline fill="none" vector-effect="none" points="138,368 138,375 " />
<polyline fill="none" vector-effect="none" points="179,368 179,375 " />
<polyline fill="none" vector-effect="none" points="221,368 221,375 " />
<polyline fill="none" vector-effect="none" points="263,368 263,375 " />
<polyline fill="none" vector-effect="none" points="304,368 304,375 " />
<polyline fill="none" vector-effect="none" points="346,368 346,375 " />
<polyline fill="none" vector-effect="none" points="387,368 387,375 " />
<polyline fill="none" vector-effect="none" points="429,368 429,375 " />
<polyline fill="none" vector-effect="none" points="470,368 470,375 " />
<polyline fill="none" vector-effect="none" points="512,368 512,375 " />
<polyline fill="none" vector-effect="none" points="554,368 554,375 " />
<polyline fill="none" vector-effect="none" points="595,368 595,375 " />
<polyline fill="none" vector-effect="none" points="159,368 159,375 " />
<polyline fill="none" vector-effect="none" points="242,368 242,375 " />
<polyline fill="none" vector-effect="none" points="325,368 325,375 " />
<polyline fill="none" vector-effect="none" points="408,368 408,375 " />
<polyline fill="none" vector-effect="none" points="491,368 491,375 " />
<polyline fill="none" vector-effect="none" points="574,368 574,375 " />
<polyline fill="none" vector-effect="none" points="117,368 117,380 " />
<polyline fill="none" vector-effect="none" points="200,368 200,380 " />
<polyline fill="none" vector-effect="none" points="283,368 283,380 " />
<polyline fill="none" vector-effect="none" points="367,368 367,380 " />
<polyline fill="none" vector-effect="none" points="450,368 450,380 " />
<polyline fill="none" vector-effect="none" points="533,368 533,380 " />
<polyline fill="none" vector-effect="none" points="616,368 616,380 " />
</g>

<g fill="none" stroke="#000000" stroke-opacity="1" stroke-width="1" stroke-linecap="square" stroke-linejoin="bevel" transform="matrix(1,0,0,1,0,0)"
font-family=".AppleSystemUIFont" font-size="24" font-weight="400" font-style="normal" 
>
<polyline fill="none" vector-effect="none" points="117,368 615,368 " />
</g>

<g fill="none" stroke="#000000" stroke-opacity="1" stroke-width="1" stroke-linecap="square" stroke-linejoin="bevel" transform="matrix(1,0,0,1,0,0)"
font-family=".AppleSystemUIFont" font-size="24" font-weight="400" font-style="normal" 
>
</g>

<g fill="none" stroke="#000000" stroke-opacity="1" stroke-width="1" stroke-linecap="square" stroke-linejoin="bevel" transform="matrix(1,0,0,1,0,0)"
font-family=".AppleSystemUIFont" font-size="17.3333" font-weight="400" font-style="normal" 
>
</g>

<g fill="#ffffff" fill-opacity="1" stroke="none" transform="matrix(1,0,0,1,0,0)"
font-family=".AppleSystemUIFont" font-size="17.3333" font-weight="400" font-style="normal" 
>
<rect x="117" y="13" width="499" height="354"/>
</g>

<g fill="none" stroke="#000000" stroke-opacity="1" stroke-width="1" stroke-linecap="square" stroke-linejoin="bevel" transform="matrix(1,0,0,1,0,0)"
font-family=".AppleSystemUIFont" font-size="17.3333" font-weight="400" font-style="normal" 
>
</g>

<g fill="none" stroke="#000000" stroke-opacity="1" stroke-width="1" stroke-linecap="square" stroke-linejoin="bevel" transform="matrix(1,0,0,1,0,0)"
font-family=".AppleSystemUIFont" font-size="17.3333" font-weight="400" font-style="normal" 
>
</g>

<g fill="none" stroke="#000000" stroke-opacity="1" stroke-width="1" stroke-linecap="square" stroke-linejoin="bevel" transform="matrix(1,0,0,1,0,0)"
font-family=".AppleSystemUIFont" font-size="17.3333" font-weight="400" font-style="normal" 
>
</g>

<g fill="none" stroke="#000000" stroke-opacity="1" stroke-width="1" stroke-linecap="square" stroke-linejoin="bevel" transform="matrix(1,0,0,1,0,0)"
font-family=".AppleSystemUIFont" font-size="17.3333" font-weight="400" font-style="normal" 
>
</g>

<g fill="#000000" fill-opacity="1" stroke="#000000" stroke-opacity="1" stroke-width="1" stroke-linecap="square" stroke-linejoin="bevel" transform="matrix(1,0,0,1,0,0)"
font-family=".AppleSystemUIFont" font-size="17.3333" font-weight="400" font-style="normal" 
>
<circle vector-effect="non-scaling-stroke" cx="533.5" cy="300.5" r="5.5"/>
<circle vector-effect="non-scaling-stroke" cx="450.5" cy="287.5" r="5.5"/>
<circle vector-effect="non-scaling-stroke" cx="408.5" cy="279.5" r="5.5"/>
<circle vector-effect="non-scaling-stroke" cx="367.5" cy="252.5" r="5.5"/>
<circle vector-effect="non-scaling-stroke" cx="325.5" cy="229.5" r="5.5"/>
<circle vector-effect="non-scaling-stroke" cx="283.5" cy="212.5" r="5.5"/>
<circle vector-effect="non-scaling-stroke" cx="242.5" cy="161.5" r="5.5"/>
<circle vector-effect="non-scaling-stroke" cx="200.5" cy="49.5" r="5.5"/>
</g>

<g fill="none" stroke="#000000" stroke-opacity="1" stroke-width="1" stroke-linecap="square" stroke-linejoin="bevel" transform="matrix(1,0,0,1,0,0)"
font-family=".AppleSystemUIFont" font-size="17.3333" font-weight="400" font-style="normal" 
>
</g>

<g fill="none" stroke="#000000" stroke-opacity="1" stroke-width="1" stroke-linecap="square" stroke-linejoin="bevel" transform="matrix(1,0,0,1,0,0)"
font-family=".AppleSystemUIFont" font-size="17.3333" font-weight="400" font-style="normal" 
>
</g>

<g fill="none" stroke="#000000" stroke-opacity="0.847059" stroke-width="1" stroke-linecap="round" stroke-linejoin="round" transform="matrix(1,0,0,1,0,0)"
font-family=".AppleSystemUIFont" font-size="17.3333" font-weight="400" font-style="normal" 
>
</g>

<g fill="none" stroke="#000000" stroke-opacity="1" stroke-width="1" stroke-linecap="square" stroke-linejoin="bevel" transform="matrix(1,0,0,1,0,0)"
font-family=".AppleSystemUIFont" font-size="17.3333" font-weight="400" font-style="normal" 
>
</g>

<g fill="none" stroke="#000000" stroke-opacity="1" stroke-width="1" stroke-linecap="square" stroke-linejoin="bevel" transform="matrix(1,0,0,1,0,0)"
font-family=".AppleSystemUIFont" font-size="17.3333" font-weight="400" font-style="normal" 
>
</g>
</g>
</svg>
