<?xml version="1.0" encoding="UTF-8" standalone="no"?>
<svg width="174.625mm" height="125.148mm"
 viewBox="0 0 660 473"
 xmlns="http://www.w3.org/2000/svg" xmlns:xlink="http://www.w3.org/1999/xlink"  version="1.2" baseProfile="tiny">
<title>Graph1</title>
<desc>Generated with Qt</desc>
<defs>
</defs>
<g fill="none" stroke="black" stroke-width="1" fill-rule="evenodd" stroke-linecap="square" stroke-linejoin="bevel" >

<g fill="#ffffff" fill-opacity="1" stroke="none" transform="matrix(1,0,0,1,0,0)"
font-family=".AppleSystemUIFont" font-size="17.3333" font-weight="400" font-style="normal" 
>
<rect x="0" y="0" width="660" height="473"/>
</g>

<g fill="none" stroke="#000000" stroke-opacity="1" stroke-width="1" stroke-linecap="square" stroke-linejoin="bevel" transform="matrix(1,0,0,1,0,0)"
font-family=".AppleSystemUIFont" font-size="17.3333" font-weight="400" font-style="normal" 
>
</g>

<g fill="#ffffff" fill-opacity="1" stroke="none" transform="matrix(1,0,0,1,0,0)"
font-family=".AppleSystemUIFont" font-size="17.3333" font-weight="400" font-style="normal" 
>
<rect x="5" y="5" width="650" height="463"/>
</g>

<g fill="none" stroke="#000000" stroke-opacity="1" stroke-width="1" stroke-linecap="square" stroke-linejoin="bevel" transform="matrix(1,0,0,1,0,0)"
font-family=".AppleSystemUIFont" font-size="17.3333" font-weight="400" font-style="normal" 
>
</g>

<g fill="none" stroke="#000000" stroke-opacity="1" stroke-width="1" stroke-linecap="square" stroke-linejoin="bevel" transform="matrix(1,0,0,1,0,0)"
font-family=".AppleSystemUIFont" font-size="17.3333" font-weight="400" font-style="normal" 
>
</g>

<g fill="none" stroke="#000000" stroke-opacity="0.847059" stroke-width="1" stroke-linecap="square" stroke-linejoin="bevel" transform="matrix(0,-1,1,0,5,413)"
font-family=".AppleSystemUIFont" font-size="18.6667" font-weight="400" font-style="normal" 
>
</g>

<g fill="none" stroke="#000000" stroke-opacity="1" stroke-width="1" stroke-linecap="square" stroke-linejoin="bevel" transform="matrix(0,-1,1,0,5,413)"
font-family=".AppleSystemUIFont" font-size="18.6667" font-weight="700" font-style="normal" 
>
</g>

<g fill="none" stroke="#000000" stroke-opacity="1" stroke-width="1" stroke-linecap="square" stroke-linejoin="bevel" transform="matrix(0,-1,1,0,5,413)"
font-family=".AppleSystemUIFont" font-size="18.6667" font-weight="700" font-style="normal" 
>
<text fill="#000000" fill-opacity="1" stroke="none" xml:space="preserve" x="74.1094" y="18.3594" font-family=".AppleSystemUIFont" font-size="18.6667" font-weight="700" font-style="normal" 
 >Solubilidad (gNaCl/100g H</text>
<text fill="#000000" fill-opacity="1" stroke="none" xml:space="preserve" x="307.266" y="20.7031" font-family=".AppleSystemUIFont" font-size="12" font-weight="700" font-style="normal" 
 >2</text>
<text fill="#000000" fill-opacity="1" stroke="none" xml:space="preserve" x="315.188" y="18.3594" font-family=".AppleSystemUIFont" font-size="18.6667" font-weight="700" font-style="normal" 
 >0)</text>
</g>

<g fill="none" stroke="#000000" stroke-opacity="1" stroke-width="1" stroke-linecap="square" stroke-linejoin="bevel" transform="matrix(0,-1,1,0,5,413)"
font-family=".AppleSystemUIFont" font-size="18.6667" font-weight="700" font-style="normal" 
>
</g>

<g fill="none" stroke="#000000" stroke-opacity="0.847059" stroke-width="1" stroke-linecap="square" stroke-linejoin="bevel" transform="matrix(0,-1,1,0,5,413)"
font-family=".AppleSystemUIFont" font-size="18.6667" font-weight="400" font-style="normal" 
>
</g>

<g fill="none" stroke="#000000" stroke-opacity="1" stroke-width="1" stroke-linecap="square" stroke-linejoin="bevel" transform="matrix(1,0,0,1,0,0)"
font-family=".AppleSystemUIFont" font-size="17.3333" font-weight="400" font-style="normal" 
>
</g>

<g fill="none" stroke="#000000" stroke-opacity="1" stroke-width="1" stroke-linecap="square" stroke-linejoin="bevel" transform="matrix(1,0,0,1,0,0)"
font-family=".AppleSystemUIFont" font-size="18.6667" font-weight="400" font-style="normal" 
>
</g>

<g fill="none" stroke="#000000" stroke-opacity="0.847059" stroke-width="1" stroke-linecap="square" stroke-linejoin="bevel" transform="matrix(1,0,0,1,0,0)"
font-family=".AppleSystemUIFont" font-size="18.6667" font-weight="400" font-style="normal" 
>
</g>

<g fill="none" stroke="#000000" stroke-opacity="0.847059" stroke-width="1" stroke-linecap="square" stroke-linejoin="bevel" transform="matrix(1,0,0,1,31,399)"
font-family=".AppleSystemUIFont" font-size="18.6667" font-weight="400" font-style="normal" 
>
<text fill="#000000" fill-opacity="0.847059" stroke="none" xml:space="preserve" x="0" y="15.3594" font-family=".AppleSystemUIFont" font-size="18.6667" font-weight="400" font-style="normal" 
 >35</text>
</g>

<g fill="none" stroke="#000000" stroke-opacity="0.847059" stroke-width="1" stroke-linecap="square" stroke-linejoin="bevel" transform="matrix(1,0,0,1,31,399)"
font-family=".AppleSystemUIFont" font-size="18.6667" font-weight="400" font-style="normal" 
>
</g>

<g fill="none" stroke="#000000" stroke-opacity="0.847059" stroke-width="1" stroke-linecap="square" stroke-linejoin="bevel" transform="matrix(1,0,0,1,0,0)"
font-family=".AppleSystemUIFont" font-size="18.6667" font-weight="400" font-style="normal" 
>
</g>

<g fill="none" stroke="#000000" stroke-opacity="0.847059" stroke-width="1" stroke-linecap="square" stroke-linejoin="bevel" transform="matrix(1,0,0,1,30,320)"
font-family=".AppleSystemUIFont" font-size="18.6667" font-weight="400" font-style="normal" 
>
<text fill="#000000" fill-opacity="0.847059" stroke="none" xml:space="preserve" x="0" y="15.3594" font-family=".AppleSystemUIFont" font-size="18.6667" font-weight="400" font-style="normal" 
 >36</text>
</g>

<g fill="none" stroke="#000000" stroke-opacity="0.847059" stroke-width="1" stroke-linecap="square" stroke-linejoin="bevel" transform="matrix(1,0,0,1,30,320)"
font-family=".AppleSystemUIFont" font-size="18.6667" font-weight="400" font-style="normal" 
>
</g>

<g fill="none" stroke="#000000" stroke-opacity="0.847059" stroke-width="1" stroke-linecap="square" stroke-linejoin="bevel" transform="matrix(1,0,0,1,0,0)"
font-family=".AppleSystemUIFont" font-size="18.6667" font-weight="400" font-style="normal" 
>
</g>

<g fill="none" stroke="#000000" stroke-opacity="0.847059" stroke-width="1" stroke-linecap="square" stroke-linejoin="bevel" transform="matrix(1,0,0,1,31,241)"
font-family=".AppleSystemUIFont" font-size="18.6667" font-weight="400" font-style="normal" 
>
<text fill="#000000" fill-opacity="0.847059" stroke="none" xml:space="preserve" x="0" y="15.3594" font-family=".AppleSystemUIFont" font-size="18.6667" font-weight="400" font-style="normal" 
 >37</text>
</g>

<g fill="none" stroke="#000000" stroke-opacity="0.847059" stroke-width="1" stroke-linecap="square" stroke-linejoin="bevel" transform="matrix(1,0,0,1,31,241)"
font-family=".AppleSystemUIFont" font-size="18.6667" font-weight="400" font-style="normal" 
>
</g>

<g fill="none" stroke="#000000" stroke-opacity="0.847059" stroke-width="1" stroke-linecap="square" stroke-linejoin="bevel" transform="matrix(1,0,0,1,0,0)"
font-family=".AppleSystemUIFont" font-size="18.6667" font-weight="400" font-style="normal" 
>
</g>

<g fill="none" stroke="#000000" stroke-opacity="0.847059" stroke-width="1" stroke-linecap="square" stroke-linejoin="bevel" transform="matrix(1,0,0,1,30,163)"
font-family=".AppleSystemUIFont" font-size="18.6667" font-weight="400" font-style="normal" 
>
<text fill="#000000" fill-opacity="0.847059" stroke="none" xml:space="preserve" x="0" y="15.3594" font-family=".AppleSystemUIFont" font-size="18.6667" font-weight="400" font-style="normal" 
 >38</text>
</g>

<g fill="none" stroke="#000000" stroke-opacity="0.847059" stroke-width="1" stroke-linecap="square" stroke-linejoin="bevel" transform="matrix(1,0,0,1,30,163)"
font-family=".AppleSystemUIFont" font-size="18.6667" font-weight="400" font-style="normal" 
>
</g>

<g fill="none" stroke="#000000" stroke-opacity="0.847059" stroke-width="1" stroke-linecap="square" stroke-linejoin="bevel" transform="matrix(1,0,0,1,0,0)"
font-family=".AppleSystemUIFont" font-size="18.6667" font-weight="400" font-style="normal" 
>
</g>

<g fill="none" stroke="#000000" stroke-opacity="0.847059" stroke-width="1" stroke-linecap="square" stroke-linejoin="bevel" transform="matrix(1,0,0,1,30,84)"
font-family=".AppleSystemUIFont" font-size="18.6667" font-weight="400" font-style="normal" 
>
<text fill="#000000" fill-opacity="0.847059" stroke="none" xml:space="preserve" x="0" y="15.3594" font-family=".AppleSystemUIFont" font-size="18.6667" font-weight="400" font-style="normal" 
 >39</text>
</g>

<g fill="none" stroke="#000000" stroke-opacity="0.847059" stroke-width="1" stroke-linecap="square" stroke-linejoin="bevel" transform="matrix(1,0,0,1,30,84)"
font-family=".AppleSystemUIFont" font-size="18.6667" font-weight="400" font-style="normal" 
>
</g>

<g fill="none" stroke="#000000" stroke-opacity="0.847059" stroke-width="1" stroke-linecap="square" stroke-linejoin="bevel" transform="matrix(1,0,0,1,0,0)"
font-family=".AppleSystemUIFont" font-size="18.6667" font-weight="400" font-style="normal" 
>
</g>

<g fill="none" stroke="#000000" stroke-opacity="0.847059" stroke-width="1" stroke-linecap="square" stroke-linejoin="bevel" transform="matrix(1,0,0,1,30,5)"
font-family=".AppleSystemUIFont" font-size="18.6667" font-weight="400" font-style="normal" 
>
<text fill="#000000" fill-opacity="0.847059" stroke="none" xml:space="preserve" x="0" y="15.3594" font-family=".AppleSystemUIFont" font-size="18.6667" font-weight="400" font-style="normal" 
 >40</text>
</g>

<g fill="none" stroke="#000000" stroke-opacity="0.847059" stroke-width="1" stroke-linecap="square" stroke-linejoin="bevel" transform="matrix(1,0,0,1,30,5)"
font-family=".AppleSystemUIFont" font-size="18.6667" font-weight="400" font-style="normal" 
>
</g>

<g fill="none" stroke="#000000" stroke-opacity="0.847059" stroke-width="1" stroke-linecap="square" stroke-linejoin="bevel" transform="matrix(1,0,0,1,0,0)"
font-family=".AppleSystemUIFont" font-size="18.6667" font-weight="400" font-style="normal" 
>
</g>

<g fill="none" stroke="#000000" stroke-opacity="1" stroke-width="1" stroke-linecap="square" stroke-linejoin="bevel" transform="matrix(1,0,0,1,0,0)"
font-family=".AppleSystemUIFont" font-size="18.6667" font-weight="400" font-style="normal" 
>
<polyline fill="none" vector-effect="none" points="76,391 69,391 " />
<polyline fill="none" vector-effect="none" points="76,375 69,375 " />
<polyline fill="none" vector-effect="none" points="76,360 69,360 " />
<polyline fill="none" vector-effect="none" points="76,344 69,344 " />
<polyline fill="none" vector-effect="none" points="76,312 69,312 " />
<polyline fill="none" vector-effect="none" points="76,297 69,297 " />
<polyline fill="none" vector-effect="none" points="76,281 69,281 " />
<polyline fill="none" vector-effect="none" points="76,265 69,265 " />
<polyline fill="none" vector-effect="none" points="76,234 69,234 " />
<polyline fill="none" vector-effect="none" points="76,218 69,218 " />
<polyline fill="none" vector-effect="none" points="76,202 69,202 " />
<polyline fill="none" vector-effect="none" points="76,186 69,186 " />
<polyline fill="none" vector-effect="none" points="76,155 69,155 " />
<polyline fill="none" vector-effect="none" points="76,139 69,139 " />
<polyline fill="none" vector-effect="none" points="76,123 69,123 " />
<polyline fill="none" vector-effect="none" points="76,108 69,108 " />
<polyline fill="none" vector-effect="none" points="76,76 69,76 " />
<polyline fill="none" vector-effect="none" points="76,60 69,60 " />
<polyline fill="none" vector-effect="none" points="76,45 69,45 " />
<polyline fill="none" vector-effect="none" points="76,29 69,29 " />
<polyline fill="none" vector-effect="none" points="76,407 64,407 " />
<polyline fill="none" vector-effect="none" points="76,328 64,328 " />
<polyline fill="none" vector-effect="none" points="76,249 64,249 " />
<polyline fill="none" vector-effect="none" points="76,171 64,171 " />
<polyline fill="none" vector-effect="none" points="76,92 64,92 " />
<polyline fill="none" vector-effect="none" points="76,13 64,13 " />
</g>

<g fill="none" stroke="#000000" stroke-opacity="1" stroke-width="1" stroke-linecap="square" stroke-linejoin="bevel" transform="matrix(1,0,0,1,0,0)"
font-family=".AppleSystemUIFont" font-size="18.6667" font-weight="400" font-style="normal" 
>
<polyline fill="none" vector-effect="none" points="76,13 76,405 " />
</g>

<g fill="none" stroke="#000000" stroke-opacity="1" stroke-width="1" stroke-linecap="square" stroke-linejoin="bevel" transform="matrix(1,0,0,1,0,0)"
font-family=".AppleSystemUIFont" font-size="18.6667" font-weight="400" font-style="normal" 
>
</g>

<g fill="none" stroke="#000000" stroke-opacity="1" stroke-width="1" stroke-linecap="square" stroke-linejoin="bevel" transform="matrix(1,0,0,1,0,0)"
font-family=".AppleSystemUIFont" font-size="17.3333" font-weight="400" font-style="normal" 
>
</g>

<g fill="none" stroke="#000000" stroke-opacity="0.847059" stroke-width="1" stroke-linecap="square" stroke-linejoin="bevel" transform="matrix(1,0,0,1,60,408)"
font-family=".AppleSystemUIFont" font-size="18.6667" font-weight="400" font-style="normal" 
>
</g>

<g fill="none" stroke="#000000" stroke-opacity="1" stroke-width="1" stroke-linecap="square" stroke-linejoin="bevel" transform="matrix(1,0,0,1,60,408)"
font-family=".AppleSystemUIFont" font-size="18.6667" font-weight="700" font-style="normal" 
>
<text fill="#000000" fill-opacity="1" stroke="none" xml:space="preserve" x="273.906" y="56" font-family=".AppleSystemUIFont" font-size="18.6667" font-weight="700" font-style="normal" 
 >T(°C)</text>
</g>

<g fill="none" stroke="#000000" stroke-opacity="0.847059" stroke-width="1" stroke-linecap="square" stroke-linejoin="bevel" transform="matrix(1,0,0,1,60,408)"
font-family=".AppleSystemUIFont" font-size="18.6667" font-weight="400" font-style="normal" 
>
</g>

<g fill="none" stroke="#000000" stroke-opacity="1" stroke-width="1" stroke-linecap="square" stroke-linejoin="bevel" transform="matrix(1,0,0,1,0,0)"
font-family=".AppleSystemUIFont" font-size="17.3333" font-weight="400" font-style="normal" 
>
</g>

<g fill="none" stroke="#000000" stroke-opacity="1" stroke-width="1" stroke-linecap="square" stroke-linejoin="bevel" transform="matrix(1,0,0,1,0,0)"
font-family=".AppleSystemUIFont" font-size="18.6667" font-weight="400" font-style="normal" 
>
</g>

<g fill="none" stroke="#000000" stroke-opacity="0.847059" stroke-width="1" stroke-linecap="square" stroke-linejoin="bevel" transform="matrix(1,0,0,1,0,0)"
font-family=".AppleSystemUIFont" font-size="18.6667" font-weight="400" font-style="normal" 
>
</g>

<g fill="none" stroke="#000000" stroke-opacity="0.847059" stroke-width="1" stroke-linecap="square" stroke-linejoin="bevel" transform="matrix(1,0,0,1,60,427)"
font-family=".AppleSystemUIFont" font-size="18.6667" font-weight="400" font-style="normal" 
>
<text fill="#000000" fill-opacity="0.847059" stroke="none" xml:space="preserve" x="0" y="15.3594" font-family=".AppleSystemUIFont" font-size="18.6667" font-weight="400" font-style="normal" 
 >-20</text>
</g>

<g fill="none" stroke="#000000" stroke-opacity="0.847059" stroke-width="1" stroke-linecap="square" stroke-linejoin="bevel" transform="matrix(1,0,0,1,60,427)"
font-family=".AppleSystemUIFont" font-size="18.6667" font-weight="400" font-style="normal" 
>
</g>

<g fill="none" stroke="#000000" stroke-opacity="0.847059" stroke-width="1" stroke-linecap="square" stroke-linejoin="bevel" transform="matrix(1,0,0,1,0,0)"
font-family=".AppleSystemUIFont" font-size="18.6667" font-weight="400" font-style="normal" 
>
</g>

<g fill="none" stroke="#000000" stroke-opacity="0.847059" stroke-width="1" stroke-linecap="square" stroke-linejoin="bevel" transform="matrix(1,0,0,1,149,427)"
font-family=".AppleSystemUIFont" font-size="18.6667" font-weight="400" font-style="normal" 
>
<text fill="#000000" fill-opacity="0.847059" stroke="none" xml:space="preserve" x="0" y="15.3594" font-family=".AppleSystemUIFont" font-size="18.6667" font-weight="400" font-style="normal" 
 >0</text>
</g>

<g fill="none" stroke="#000000" stroke-opacity="0.847059" stroke-width="1" stroke-linecap="square" stroke-linejoin="bevel" transform="matrix(1,0,0,1,149,427)"
font-family=".AppleSystemUIFont" font-size="18.6667" font-weight="400" font-style="normal" 
>
</g>

<g fill="none" stroke="#000000" stroke-opacity="0.847059" stroke-width="1" stroke-linecap="square" stroke-linejoin="bevel" transform="matrix(1,0,0,1,0,0)"
font-family=".AppleSystemUIFont" font-size="18.6667" font-weight="400" font-style="normal" 
>
</g>

<g fill="none" stroke="#000000" stroke-opacity="0.847059" stroke-width="1" stroke-linecap="square" stroke-linejoin="bevel" transform="matrix(1,0,0,1,224,427)"
font-family=".AppleSystemUIFont" font-size="18.6667" font-weight="400" font-style="normal" 
>
<text fill="#000000" fill-opacity="0.847059" stroke="none" xml:space="preserve" x="0" y="15.3594" font-family=".AppleSystemUIFont" font-size="18.6667" font-weight="400" font-style="normal" 
 >20</text>
</g>

<g fill="none" stroke="#000000" stroke-opacity="0.847059" stroke-width="1" stroke-linecap="square" stroke-linejoin="bevel" transform="matrix(1,0,0,1,224,427)"
font-family=".AppleSystemUIFont" font-size="18.6667" font-weight="400" font-style="normal" 
>
</g>

<g fill="none" stroke="#000000" stroke-opacity="0.847059" stroke-width="1" stroke-linecap="square" stroke-linejoin="bevel" transform="matrix(1,0,0,1,0,0)"
font-family=".AppleSystemUIFont" font-size="18.6667" font-weight="400" font-style="normal" 
>
</g>

<g fill="none" stroke="#000000" stroke-opacity="0.847059" stroke-width="1" stroke-linecap="square" stroke-linejoin="bevel" transform="matrix(1,0,0,1,303,427)"
font-family=".AppleSystemUIFont" font-size="18.6667" font-weight="400" font-style="normal" 
>
<text fill="#000000" fill-opacity="0.847059" stroke="none" xml:space="preserve" x="0" y="15.3594" font-family=".AppleSystemUIFont" font-size="18.6667" font-weight="400" font-style="normal" 
 >40</text>
</g>

<g fill="none" stroke="#000000" stroke-opacity="0.847059" stroke-width="1" stroke-linecap="square" stroke-linejoin="bevel" transform="matrix(1,0,0,1,303,427)"
font-family=".AppleSystemUIFont" font-size="18.6667" font-weight="400" font-style="normal" 
>
</g>

<g fill="none" stroke="#000000" stroke-opacity="0.847059" stroke-width="1" stroke-linecap="square" stroke-linejoin="bevel" transform="matrix(1,0,0,1,0,0)"
font-family=".AppleSystemUIFont" font-size="18.6667" font-weight="400" font-style="normal" 
>
</g>

<g fill="none" stroke="#000000" stroke-opacity="0.847059" stroke-width="1" stroke-linecap="square" stroke-linejoin="bevel" transform="matrix(1,0,0,1,385,427)"
font-family=".AppleSystemUIFont" font-size="18.6667" font-weight="400" font-style="normal" 
>
<text fill="#000000" fill-opacity="0.847059" stroke="none" xml:space="preserve" x="0" y="15.3594" font-family=".AppleSystemUIFont" font-size="18.6667" font-weight="400" font-style="normal" 
 >60</text>
</g>

<g fill="none" stroke="#000000" stroke-opacity="0.847059" stroke-width="1" stroke-linecap="square" stroke-linejoin="bevel" transform="matrix(1,0,0,1,385,427)"
font-family=".AppleSystemUIFont" font-size="18.6667" font-weight="400" font-style="normal" 
>
</g>

<g fill="none" stroke="#000000" stroke-opacity="0.847059" stroke-width="1" stroke-linecap="square" stroke-linejoin="bevel" transform="matrix(1,0,0,1,0,0)"
font-family=".AppleSystemUIFont" font-size="18.6667" font-weight="400" font-style="normal" 
>
</g>

<g fill="none" stroke="#000000" stroke-opacity="0.847059" stroke-width="1" stroke-linecap="square" stroke-linejoin="bevel" transform="matrix(1,0,0,1,465,427)"
font-family=".AppleSystemUIFont" font-size="18.6667" font-weight="400" font-style="normal" 
>
<text fill="#000000" fill-opacity="0.847059" stroke="none" xml:space="preserve" x="0" y="15.3594" font-family=".AppleSystemUIFont" font-size="18.6667" font-weight="400" font-style="normal" 
 >80</text>
</g>

<g fill="none" stroke="#000000" stroke-opacity="0.847059" stroke-width="1" stroke-linecap="square" stroke-linejoin="bevel" transform="matrix(1,0,0,1,465,427)"
font-family=".AppleSystemUIFont" font-size="18.6667" font-weight="400" font-style="normal" 
>
</g>

<g fill="none" stroke="#000000" stroke-opacity="0.847059" stroke-width="1" stroke-linecap="square" stroke-linejoin="bevel" transform="matrix(1,0,0,1,0,0)"
font-family=".AppleSystemUIFont" font-size="18.6667" font-weight="400" font-style="normal" 
>
</g>

<g fill="none" stroke="#000000" stroke-opacity="0.847059" stroke-width="1" stroke-linecap="square" stroke-linejoin="bevel" transform="matrix(1,0,0,1,541,427)"
font-family=".AppleSystemUIFont" font-size="18.6667" font-weight="400" font-style="normal" 
>
<text fill="#000000" fill-opacity="0.847059" stroke="none" xml:space="preserve" x="0" y="15.3594" font-family=".AppleSystemUIFont" font-size="18.6667" font-weight="400" font-style="normal" 
 >100</text>
</g>

<g fill="none" stroke="#000000" stroke-opacity="0.847059" stroke-width="1" stroke-linecap="square" stroke-linejoin="bevel" transform="matrix(1,0,0,1,541,427)"
font-family=".AppleSystemUIFont" font-size="18.6667" font-weight="400" font-style="normal" 
>
</g>

<g fill="none" stroke="#000000" stroke-opacity="0.847059" stroke-width="1" stroke-linecap="square" stroke-linejoin="bevel" transform="matrix(1,0,0,1,0,0)"
font-family=".AppleSystemUIFont" font-size="18.6667" font-weight="400" font-style="normal" 
>
</g>

<g fill="none" stroke="#000000" stroke-opacity="0.847059" stroke-width="1" stroke-linecap="square" stroke-linejoin="bevel" transform="matrix(1,0,0,1,622,427)"
font-family=".AppleSystemUIFont" font-size="18.6667" font-weight="400" font-style="normal" 
>
<text fill="#000000" fill-opacity="0.847059" stroke="none" xml:space="preserve" x="0" y="15.3594" font-family=".AppleSystemUIFont" font-size="18.6667" font-weight="400" font-style="normal" 
 >120</text>
</g>

<g fill="none" stroke="#000000" stroke-opacity="0.847059" stroke-width="1" stroke-linecap="square" stroke-linejoin="bevel" transform="matrix(1,0,0,1,622,427)"
font-family=".AppleSystemUIFont" font-size="18.6667" font-weight="400" font-style="normal" 
>
</g>

<g fill="none" stroke="#000000" stroke-opacity="0.847059" stroke-width="1" stroke-linecap="square" stroke-linejoin="bevel" transform="matrix(1,0,0,1,0,0)"
font-family=".AppleSystemUIFont" font-size="18.6667" font-weight="400" font-style="normal" 
>
</g>

<g fill="none" stroke="#000000" stroke-opacity="1" stroke-width="1" stroke-linecap="square" stroke-linejoin="bevel" transform="matrix(1,0,0,1,0,0)"
font-family=".AppleSystemUIFont" font-size="18.6667" font-weight="400" font-style="normal" 
>
<polyline fill="none" vector-effect="none" points="97,408 97,415 " />
<polyline fill="none" vector-effect="none" points="137,408 137,415 " />
<polyline fill="none" vector-effect="none" points="177,408 177,415 " />
<polyline fill="none" vector-effect="none" points="218,408 218,415 " />
<polyline fill="none" vector-effect="none" points="258,408 258,415 " />
<polyline fill="none" vector-effect="none" points="298,408 298,415 " />
<polyline fill="none" vector-effect="none" points="338,408 338,415 " />
<polyline fill="none" vector-effect="none" points="378,408 378,415 " />
<polyline fill="none" vector-effect="none" points="418,408 418,415 " />
<polyline fill="none" vector-effect="none" points="458,408 458,415 " />
<polyline fill="none" vector-effect="none" points="499,408 499,415 " />
<polyline fill="none" vector-effect="none" points="539,408 539,415 " />
<polyline fill="none" vector-effect="none" points="579,408 579,415 " />
<polyline fill="none" vector-effect="none" points="619,408 619,415 " />
<polyline fill="none" vector-effect="none" points="117,408 117,415 " />
<polyline fill="none" vector-effect="none" points="197,408 197,415 " />
<polyline fill="none" vector-effect="none" points="278,408 278,415 " />
<polyline fill="none" vector-effect="none" points="358,408 358,415 " />
<polyline fill="none" vector-effect="none" points="438,408 438,415 " />
<polyline fill="none" vector-effect="none" points="519,408 519,415 " />
<polyline fill="none" vector-effect="none" points="599,408 599,415 " />
<polyline fill="none" vector-effect="none" points="77,408 77,420 " />
<polyline fill="none" vector-effect="none" points="157,408 157,420 " />
<polyline fill="none" vector-effect="none" points="238,408 238,420 " />
<polyline fill="none" vector-effect="none" points="318,408 318,420 " />
<polyline fill="none" vector-effect="none" points="398,408 398,420 " />
<polyline fill="none" vector-effect="none" points="478,408 478,420 " />
<polyline fill="none" vector-effect="none" points="559,408 559,420 " />
<polyline fill="none" vector-effect="none" points="639,408 639,420 " />
</g>

<g fill="none" stroke="#000000" stroke-opacity="1" stroke-width="1" stroke-linecap="square" stroke-linejoin="bevel" transform="matrix(1,0,0,1,0,0)"
font-family=".AppleSystemUIFont" font-size="18.6667" font-weight="400" font-style="normal" 
>
<polyline fill="none" vector-effect="none" points="77,408 637,408 " />
</g>

<g fill="none" stroke="#000000" stroke-opacity="1" stroke-width="1" stroke-linecap="square" stroke-linejoin="bevel" transform="matrix(1,0,0,1,0,0)"
font-family=".AppleSystemUIFont" font-size="18.6667" font-weight="400" font-style="normal" 
>
</g>

<g fill="none" stroke="#000000" stroke-opacity="1" stroke-width="1" stroke-linecap="square" stroke-linejoin="bevel" transform="matrix(1,0,0,1,0,0)"
font-family=".AppleSystemUIFont" font-size="17.3333" font-weight="400" font-style="normal" 
>
</g>

<g fill="#ffffff" fill-opacity="1" stroke="none" transform="matrix(1,0,0,1,0,0)"
font-family=".AppleSystemUIFont" font-size="17.3333" font-weight="400" font-style="normal" 
>
<rect x="77" y="13" width="562" height="394"/>
</g>

<g fill="none" stroke="#000000" stroke-opacity="1" stroke-width="1" stroke-linecap="square" stroke-linejoin="bevel" transform="matrix(1,0,0,1,0,0)"
font-family=".AppleSystemUIFont" font-size="17.3333" font-weight="400" font-style="normal" 
>
</g>

<g fill="none" stroke="#000000" stroke-opacity="1" stroke-width="1" stroke-linecap="square" stroke-linejoin="bevel" transform="matrix(1,0,0,1,0,0)"
font-family=".AppleSystemUIFont" font-size="17.3333" font-weight="400" font-style="normal" 
>
</g>

<g fill="none" stroke="#000000" stroke-opacity="1" stroke-width="1" stroke-linecap="square" stroke-linejoin="bevel" transform="matrix(1,0,0,1,0,0)"
font-family=".AppleSystemUIFont" font-size="17.3333" font-weight="400" font-style="normal" 
>
</g>

<g fill="none" stroke="#000000" stroke-opacity="1" stroke-width="1" stroke-linecap="square" stroke-linejoin="bevel" transform="matrix(1,0,0,1,0,0)"
font-family=".AppleSystemUIFont" font-size="17.3333" font-weight="400" font-style="normal" 
>
</g>

<g fill="#000000" fill-opacity="1" stroke="#000000" stroke-opacity="1" stroke-width="1" stroke-linecap="square" stroke-linejoin="bevel" transform="matrix(1,0,0,1,0,0)"
font-family=".AppleSystemUIFont" font-size="17.3333" font-weight="400" font-style="normal" 
>
<circle vector-effect="non-scaling-stroke" cx="157" cy="391" r="7"/>
<circle vector-effect="non-scaling-stroke" cx="238" cy="320" r="7"/>
<circle vector-effect="non-scaling-stroke" cx="318" cy="249" r="7"/>
<circle vector-effect="non-scaling-stroke" cx="398" cy="194" r="7"/>
<circle vector-effect="non-scaling-stroke" cx="478" cy="139" r="7"/>
<circle vector-effect="non-scaling-stroke" cx="559" cy="92" r="7"/>
</g>

<g fill="none" stroke="#000000" stroke-opacity="1" stroke-width="1" stroke-linecap="square" stroke-linejoin="bevel" transform="matrix(1,0,0,1,0,0)"
font-family=".AppleSystemUIFont" font-size="17.3333" font-weight="400" font-style="normal" 
>
</g>

<g fill="none" stroke="#000000" stroke-opacity="1" stroke-width="1" stroke-linecap="square" stroke-linejoin="bevel" transform="matrix(1,0,0,1,0,0)"
font-family=".AppleSystemUIFont" font-size="17.3333" font-weight="400" font-style="normal" 
>
</g>

<g fill="none" stroke="#000000" stroke-opacity="1" stroke-width="1" stroke-linecap="square" stroke-linejoin="bevel" transform="matrix(1,0,0,1,0,0)"
font-family=".AppleSystemUIFont" font-size="17.3333" font-weight="400" font-style="normal" 
>
</g>

<g fill="none" stroke="#ff0000" stroke-opacity="1" stroke-width="3" stroke-linecap="butt" stroke-linejoin="bevel" transform="matrix(1,0,0,1,0,0)"
font-family=".AppleSystemUIFont" font-size="17.3333" font-weight="400" font-style="normal" 
>
<polyline fill="none" vector-effect="non-scaling-stroke" points="157,381 559,81 " />
</g>

<g fill="none" stroke="#000000" stroke-opacity="1" stroke-width="1" stroke-linecap="square" stroke-linejoin="bevel" transform="matrix(1,0,0,1,0,0)"
font-family=".AppleSystemUIFont" font-size="17.3333" font-weight="400" font-style="normal" 
>
</g>

<g fill="none" stroke="#000000" stroke-opacity="1" stroke-width="1" stroke-linecap="square" stroke-linejoin="bevel" transform="matrix(1,0,0,1,0,0)"
font-family=".AppleSystemUIFont" font-size="17.3333" font-weight="400" font-style="normal" 
>
</g>

<g fill="none" stroke="#000000" stroke-opacity="0.847059" stroke-width="1" stroke-linecap="round" stroke-linejoin="round" transform="matrix(1,0,0,1,0,0)"
font-family=".AppleSystemUIFont" font-size="17.3333" font-weight="400" font-style="normal" 
>
</g>

<g fill="none" stroke="#000000" stroke-opacity="1" stroke-width="1" stroke-linecap="square" stroke-linejoin="bevel" transform="matrix(1,0,0,1,0,0)"
font-family=".AppleSystemUIFont" font-size="17.3333" font-weight="400" font-style="normal" 
>
</g>

<g fill="none" stroke="#000000" stroke-opacity="1" stroke-width="1" stroke-linecap="square" stroke-linejoin="bevel" transform="matrix(1,0,0,1,0,0)"
font-family=".AppleSystemUIFont" font-size="17.3333" font-weight="400" font-style="normal" 
>
</g>
</g>
</svg>
