<?xml version="1.0" encoding="UTF-8" standalone="no"?>
<svg width="174.625mm" height="125.148mm"
 viewBox="0 0 660 473"
 xmlns="http://www.w3.org/2000/svg" xmlns:xlink="http://www.w3.org/1999/xlink"  version="1.2" baseProfile="tiny">
<title>Graph1</title>
<desc>Generated with Qt</desc>
<defs>
</defs>
<g fill="none" stroke="black" stroke-width="1" fill-rule="evenodd" stroke-linecap="square" stroke-linejoin="bevel" >

<g fill="#ffffff" fill-opacity="1" stroke="none" transform="matrix(1,0,0,1,0,0)"
font-family=".AppleSystemUIFont" font-size="17.3333" font-weight="400" font-style="normal" 
>
<rect x="0" y="0" width="660" height="473"/>
</g>

<g fill="none" stroke="#000000" stroke-opacity="1" stroke-width="1" stroke-linecap="square" stroke-linejoin="bevel" transform="matrix(1,0,0,1,0,0)"
font-family=".AppleSystemUIFont" font-size="17.3333" font-weight="400" font-style="normal" 
>
</g>

<g fill="#ffffff" fill-opacity="1" stroke="none" transform="matrix(1,0,0,1,0,0)"
font-family=".AppleSystemUIFont" font-size="17.3333" font-weight="400" font-style="normal" 
>
<rect x="5" y="5" width="650" height="463"/>
</g>

<g fill="none" stroke="#000000" stroke-opacity="1" stroke-width="1" stroke-linecap="square" stroke-linejoin="bevel" transform="matrix(1,0,0,1,0,0)"
font-family=".AppleSystemUIFont" font-size="17.3333" font-weight="400" font-style="normal" 
>
</g>

<g fill="none" stroke="#000000" stroke-opacity="1" stroke-width="1" stroke-linecap="square" stroke-linejoin="bevel" transform="matrix(1,0,0,1,0,0)"
font-family=".AppleSystemUIFont" font-size="17.3333" font-weight="400" font-style="normal" 
>
</g>

<g fill="none" stroke="#000000" stroke-opacity="0.847059" stroke-width="1" stroke-linecap="square" stroke-linejoin="bevel" transform="matrix(0,-1,1,0,5,403)"
font-family=".AppleSystemUIFont" font-size="24" font-weight="400" font-style="normal" 
>
</g>

<g fill="none" stroke="#000000" stroke-opacity="1" stroke-width="1" stroke-linecap="square" stroke-linejoin="bevel" transform="matrix(0,-1,1,0,5,403)"
font-family=".AppleSystemUIFont" font-size="25.3333" font-weight="700" font-style="normal" 
>
</g>

<g fill="none" stroke="#000000" stroke-opacity="1" stroke-width="1" stroke-linecap="square" stroke-linejoin="bevel" transform="matrix(0,-1,1,0,5,403)"
font-family=".AppleSystemUIFont" font-size="25.3333" font-weight="700" font-style="normal" 
>
<text fill="#000000" fill-opacity="1" stroke="none" xml:space="preserve" x="34.6563" y="24.1563" font-family=".AppleSystemUIFont" font-size="25.3333" font-weight="700" font-style="normal" 
 >Solubilidad (gNaCl/100g H</text>
<text fill="#000000" fill-opacity="1" stroke="none" xml:space="preserve" x="329.078" y="27.2969" font-family=".AppleSystemUIFont" font-size="16" font-weight="700" font-style="normal" 
 >2</text>
<text fill="#000000" fill-opacity="1" stroke="none" xml:space="preserve" x="339.047" y="24.1563" font-family=".AppleSystemUIFont" font-size="25.3333" font-weight="700" font-style="normal" 
 >0)</text>
</g>

<g fill="none" stroke="#000000" stroke-opacity="1" stroke-width="1" stroke-linecap="square" stroke-linejoin="bevel" transform="matrix(0,-1,1,0,5,403)"
font-family=".AppleSystemUIFont" font-size="25.3333" font-weight="700" font-style="normal" 
>
</g>

<g fill="none" stroke="#000000" stroke-opacity="0.847059" stroke-width="1" stroke-linecap="square" stroke-linejoin="bevel" transform="matrix(0,-1,1,0,5,403)"
font-family=".AppleSystemUIFont" font-size="24" font-weight="400" font-style="normal" 
>
</g>

<g fill="none" stroke="#000000" stroke-opacity="1" stroke-width="1" stroke-linecap="square" stroke-linejoin="bevel" transform="matrix(1,0,0,1,0,0)"
font-family=".AppleSystemUIFont" font-size="17.3333" font-weight="400" font-style="normal" 
>
</g>

<g fill="none" stroke="#000000" stroke-opacity="1" stroke-width="1" stroke-linecap="square" stroke-linejoin="bevel" transform="matrix(1,0,0,1,0,0)"
font-family=".AppleSystemUIFont" font-size="24" font-weight="400" font-style="normal" 
>
</g>

<g fill="none" stroke="#000000" stroke-opacity="0.847059" stroke-width="1" stroke-linecap="square" stroke-linejoin="bevel" transform="matrix(1,0,0,1,0,0)"
font-family=".AppleSystemUIFont" font-size="24" font-weight="400" font-style="normal" 
>
</g>

<g fill="none" stroke="#000000" stroke-opacity="0.847059" stroke-width="1" stroke-linecap="square" stroke-linejoin="bevel" transform="matrix(1,0,0,1,40,383)"
font-family=".AppleSystemUIFont" font-size="24" font-weight="400" font-style="normal" 
>
<text fill="#000000" fill-opacity="0.847059" stroke="none" xml:space="preserve" x="0" y="20.2031" font-family=".AppleSystemUIFont" font-size="24" font-weight="400" font-style="normal" 
 >35</text>
</g>

<g fill="none" stroke="#000000" stroke-opacity="0.847059" stroke-width="1" stroke-linecap="square" stroke-linejoin="bevel" transform="matrix(1,0,0,1,40,383)"
font-family=".AppleSystemUIFont" font-size="24" font-weight="400" font-style="normal" 
>
</g>

<g fill="none" stroke="#000000" stroke-opacity="0.847059" stroke-width="1" stroke-linecap="square" stroke-linejoin="bevel" transform="matrix(1,0,0,1,0,0)"
font-family=".AppleSystemUIFont" font-size="24" font-weight="400" font-style="normal" 
>
</g>

<g fill="none" stroke="#000000" stroke-opacity="0.847059" stroke-width="1" stroke-linecap="square" stroke-linejoin="bevel" transform="matrix(1,0,0,1,40,307)"
font-family=".AppleSystemUIFont" font-size="24" font-weight="400" font-style="normal" 
>
<text fill="#000000" fill-opacity="0.847059" stroke="none" xml:space="preserve" x="0" y="20.2031" font-family=".AppleSystemUIFont" font-size="24" font-weight="400" font-style="normal" 
 >36</text>
</g>

<g fill="none" stroke="#000000" stroke-opacity="0.847059" stroke-width="1" stroke-linecap="square" stroke-linejoin="bevel" transform="matrix(1,0,0,1,40,307)"
font-family=".AppleSystemUIFont" font-size="24" font-weight="400" font-style="normal" 
>
</g>

<g fill="none" stroke="#000000" stroke-opacity="0.847059" stroke-width="1" stroke-linecap="square" stroke-linejoin="bevel" transform="matrix(1,0,0,1,0,0)"
font-family=".AppleSystemUIFont" font-size="24" font-weight="400" font-style="normal" 
>
</g>

<g fill="none" stroke="#000000" stroke-opacity="0.847059" stroke-width="1" stroke-linecap="square" stroke-linejoin="bevel" transform="matrix(1,0,0,1,41,233)"
font-family=".AppleSystemUIFont" font-size="24" font-weight="400" font-style="normal" 
>
<text fill="#000000" fill-opacity="0.847059" stroke="none" xml:space="preserve" x="0" y="20.2031" font-family=".AppleSystemUIFont" font-size="24" font-weight="400" font-style="normal" 
 >37</text>
</g>

<g fill="none" stroke="#000000" stroke-opacity="0.847059" stroke-width="1" stroke-linecap="square" stroke-linejoin="bevel" transform="matrix(1,0,0,1,41,233)"
font-family=".AppleSystemUIFont" font-size="24" font-weight="400" font-style="normal" 
>
</g>

<g fill="none" stroke="#000000" stroke-opacity="0.847059" stroke-width="1" stroke-linecap="square" stroke-linejoin="bevel" transform="matrix(1,0,0,1,0,0)"
font-family=".AppleSystemUIFont" font-size="24" font-weight="400" font-style="normal" 
>
</g>

<g fill="none" stroke="#000000" stroke-opacity="0.847059" stroke-width="1" stroke-linecap="square" stroke-linejoin="bevel" transform="matrix(1,0,0,1,40,157)"
font-family=".AppleSystemUIFont" font-size="24" font-weight="400" font-style="normal" 
>
<text fill="#000000" fill-opacity="0.847059" stroke="none" xml:space="preserve" x="0" y="20.2031" font-family=".AppleSystemUIFont" font-size="24" font-weight="400" font-style="normal" 
 >38</text>
</g>

<g fill="none" stroke="#000000" stroke-opacity="0.847059" stroke-width="1" stroke-linecap="square" stroke-linejoin="bevel" transform="matrix(1,0,0,1,40,157)"
font-family=".AppleSystemUIFont" font-size="24" font-weight="400" font-style="normal" 
>
</g>

<g fill="none" stroke="#000000" stroke-opacity="0.847059" stroke-width="1" stroke-linecap="square" stroke-linejoin="bevel" transform="matrix(1,0,0,1,0,0)"
font-family=".AppleSystemUIFont" font-size="24" font-weight="400" font-style="normal" 
>
</g>

<g fill="none" stroke="#000000" stroke-opacity="0.847059" stroke-width="1" stroke-linecap="square" stroke-linejoin="bevel" transform="matrix(1,0,0,1,40,82)"
font-family=".AppleSystemUIFont" font-size="24" font-weight="400" font-style="normal" 
>
<text fill="#000000" fill-opacity="0.847059" stroke="none" xml:space="preserve" x="0" y="20.2031" font-family=".AppleSystemUIFont" font-size="24" font-weight="400" font-style="normal" 
 >39</text>
</g>

<g fill="none" stroke="#000000" stroke-opacity="0.847059" stroke-width="1" stroke-linecap="square" stroke-linejoin="bevel" transform="matrix(1,0,0,1,40,82)"
font-family=".AppleSystemUIFont" font-size="24" font-weight="400" font-style="normal" 
>
</g>

<g fill="none" stroke="#000000" stroke-opacity="0.847059" stroke-width="1" stroke-linecap="square" stroke-linejoin="bevel" transform="matrix(1,0,0,1,0,0)"
font-family=".AppleSystemUIFont" font-size="24" font-weight="400" font-style="normal" 
>
</g>

<g fill="none" stroke="#000000" stroke-opacity="0.847059" stroke-width="1" stroke-linecap="square" stroke-linejoin="bevel" transform="matrix(1,0,0,1,39,6)"
font-family=".AppleSystemUIFont" font-size="24" font-weight="400" font-style="normal" 
>
<text fill="#000000" fill-opacity="0.847059" stroke="none" xml:space="preserve" x="0" y="20.2031" font-family=".AppleSystemUIFont" font-size="24" font-weight="400" font-style="normal" 
 >40</text>
</g>

<g fill="none" stroke="#000000" stroke-opacity="0.847059" stroke-width="1" stroke-linecap="square" stroke-linejoin="bevel" transform="matrix(1,0,0,1,39,6)"
font-family=".AppleSystemUIFont" font-size="24" font-weight="400" font-style="normal" 
>
</g>

<g fill="none" stroke="#000000" stroke-opacity="0.847059" stroke-width="1" stroke-linecap="square" stroke-linejoin="bevel" transform="matrix(1,0,0,1,0,0)"
font-family=".AppleSystemUIFont" font-size="24" font-weight="400" font-style="normal" 
>
</g>

<g fill="none" stroke="#000000" stroke-opacity="1" stroke-width="1" stroke-linecap="square" stroke-linejoin="bevel" transform="matrix(1,0,0,1,0,0)"
font-family=".AppleSystemUIFont" font-size="24" font-weight="400" font-style="normal" 
>
<polyline fill="none" vector-effect="none" points="89,378 82,378 " />
<polyline fill="none" vector-effect="none" points="89,363 82,363 " />
<polyline fill="none" vector-effect="none" points="89,348 82,348 " />
<polyline fill="none" vector-effect="none" points="89,333 82,333 " />
<polyline fill="none" vector-effect="none" points="89,303 82,303 " />
<polyline fill="none" vector-effect="none" points="89,287 82,287 " />
<polyline fill="none" vector-effect="none" points="89,272 82,272 " />
<polyline fill="none" vector-effect="none" points="89,257 82,257 " />
<polyline fill="none" vector-effect="none" points="89,227 82,227 " />
<polyline fill="none" vector-effect="none" points="89,212 82,212 " />
<polyline fill="none" vector-effect="none" points="89,197 82,197 " />
<polyline fill="none" vector-effect="none" points="89,182 82,182 " />
<polyline fill="none" vector-effect="none" points="89,152 82,152 " />
<polyline fill="none" vector-effect="none" points="89,137 82,137 " />
<polyline fill="none" vector-effect="none" points="89,122 82,122 " />
<polyline fill="none" vector-effect="none" points="89,106 82,106 " />
<polyline fill="none" vector-effect="none" points="89,76 82,76 " />
<polyline fill="none" vector-effect="none" points="89,61 82,61 " />
<polyline fill="none" vector-effect="none" points="89,46 82,46 " />
<polyline fill="none" vector-effect="none" points="89,31 82,31 " />
<polyline fill="none" vector-effect="none" points="89,393 77,393 " />
<polyline fill="none" vector-effect="none" points="89,318 77,318 " />
<polyline fill="none" vector-effect="none" points="89,242 77,242 " />
<polyline fill="none" vector-effect="none" points="89,167 77,167 " />
<polyline fill="none" vector-effect="none" points="89,91 77,91 " />
<polyline fill="none" vector-effect="none" points="89,16 77,16 " />
</g>

<g fill="none" stroke="#000000" stroke-opacity="1" stroke-width="1" stroke-linecap="square" stroke-linejoin="bevel" transform="matrix(1,0,0,1,0,0)"
font-family=".AppleSystemUIFont" font-size="24" font-weight="400" font-style="normal" 
>
<polyline fill="none" vector-effect="none" points="89,16 89,392 " />
</g>

<g fill="none" stroke="#000000" stroke-opacity="1" stroke-width="1" stroke-linecap="square" stroke-linejoin="bevel" transform="matrix(1,0,0,1,0,0)"
font-family=".AppleSystemUIFont" font-size="24" font-weight="400" font-style="normal" 
>
</g>

<g fill="none" stroke="#000000" stroke-opacity="1" stroke-width="1" stroke-linecap="square" stroke-linejoin="bevel" transform="matrix(1,0,0,1,0,0)"
font-family=".AppleSystemUIFont" font-size="17.3333" font-weight="400" font-style="normal" 
>
</g>

<g fill="none" stroke="#000000" stroke-opacity="0.847059" stroke-width="1" stroke-linecap="square" stroke-linejoin="bevel" transform="matrix(1,0,0,1,71,395)"
font-family=".AppleSystemUIFont" font-size="24" font-weight="400" font-style="normal" 
>
</g>

<g fill="none" stroke="#000000" stroke-opacity="1" stroke-width="1" stroke-linecap="square" stroke-linejoin="bevel" transform="matrix(1,0,0,1,71,395)"
font-family=".AppleSystemUIFont" font-size="25.3333" font-weight="700" font-style="normal" 
>
<text fill="#000000" fill-opacity="1" stroke="none" xml:space="preserve" x="261.859" y="67.7344" font-family=".AppleSystemUIFont" font-size="25.3333" font-weight="700" font-style="normal" 
 >T(°C)</text>
</g>

<g fill="none" stroke="#000000" stroke-opacity="0.847059" stroke-width="1" stroke-linecap="square" stroke-linejoin="bevel" transform="matrix(1,0,0,1,71,395)"
font-family=".AppleSystemUIFont" font-size="24" font-weight="400" font-style="normal" 
>
</g>

<g fill="none" stroke="#000000" stroke-opacity="1" stroke-width="1" stroke-linecap="square" stroke-linejoin="bevel" transform="matrix(1,0,0,1,0,0)"
font-family=".AppleSystemUIFont" font-size="17.3333" font-weight="400" font-style="normal" 
>
</g>

<g fill="none" stroke="#000000" stroke-opacity="1" stroke-width="1" stroke-linecap="square" stroke-linejoin="bevel" transform="matrix(1,0,0,1,0,0)"
font-family=".AppleSystemUIFont" font-size="24" font-weight="400" font-style="normal" 
>
</g>

<g fill="none" stroke="#000000" stroke-opacity="0.847059" stroke-width="1" stroke-linecap="square" stroke-linejoin="bevel" transform="matrix(1,0,0,1,0,0)"
font-family=".AppleSystemUIFont" font-size="24" font-weight="400" font-style="normal" 
>
</g>

<g fill="none" stroke="#000000" stroke-opacity="0.847059" stroke-width="1" stroke-linecap="square" stroke-linejoin="bevel" transform="matrix(1,0,0,1,71,412)"
font-family=".AppleSystemUIFont" font-size="24" font-weight="400" font-style="normal" 
>
<text fill="#000000" fill-opacity="0.847059" stroke="none" xml:space="preserve" x="0" y="20.2031" font-family=".AppleSystemUIFont" font-size="24" font-weight="400" font-style="normal" 
 >-20</text>
</g>

<g fill="none" stroke="#000000" stroke-opacity="0.847059" stroke-width="1" stroke-linecap="square" stroke-linejoin="bevel" transform="matrix(1,0,0,1,71,412)"
font-family=".AppleSystemUIFont" font-size="24" font-weight="400" font-style="normal" 
>
</g>

<g fill="none" stroke="#000000" stroke-opacity="0.847059" stroke-width="1" stroke-linecap="square" stroke-linejoin="bevel" transform="matrix(1,0,0,1,0,0)"
font-family=".AppleSystemUIFont" font-size="24" font-weight="400" font-style="normal" 
>
</g>

<g fill="none" stroke="#000000" stroke-opacity="0.847059" stroke-width="1" stroke-linecap="square" stroke-linejoin="bevel" transform="matrix(1,0,0,1,159,412)"
font-family=".AppleSystemUIFont" font-size="24" font-weight="400" font-style="normal" 
>
<text fill="#000000" fill-opacity="0.847059" stroke="none" xml:space="preserve" x="0" y="20.2031" font-family=".AppleSystemUIFont" font-size="24" font-weight="400" font-style="normal" 
 >0</text>
</g>

<g fill="none" stroke="#000000" stroke-opacity="0.847059" stroke-width="1" stroke-linecap="square" stroke-linejoin="bevel" transform="matrix(1,0,0,1,159,412)"
font-family=".AppleSystemUIFont" font-size="24" font-weight="400" font-style="normal" 
>
</g>

<g fill="none" stroke="#000000" stroke-opacity="0.847059" stroke-width="1" stroke-linecap="square" stroke-linejoin="bevel" transform="matrix(1,0,0,1,0,0)"
font-family=".AppleSystemUIFont" font-size="24" font-weight="400" font-style="normal" 
>
</g>

<g fill="none" stroke="#000000" stroke-opacity="0.847059" stroke-width="1" stroke-linecap="square" stroke-linejoin="bevel" transform="matrix(1,0,0,1,231,412)"
font-family=".AppleSystemUIFont" font-size="24" font-weight="400" font-style="normal" 
>
<text fill="#000000" fill-opacity="0.847059" stroke="none" xml:space="preserve" x="0" y="20.2031" font-family=".AppleSystemUIFont" font-size="24" font-weight="400" font-style="normal" 
 >20</text>
</g>

<g fill="none" stroke="#000000" stroke-opacity="0.847059" stroke-width="1" stroke-linecap="square" stroke-linejoin="bevel" transform="matrix(1,0,0,1,231,412)"
font-family=".AppleSystemUIFont" font-size="24" font-weight="400" font-style="normal" 
>
</g>

<g fill="none" stroke="#000000" stroke-opacity="0.847059" stroke-width="1" stroke-linecap="square" stroke-linejoin="bevel" transform="matrix(1,0,0,1,0,0)"
font-family=".AppleSystemUIFont" font-size="24" font-weight="400" font-style="normal" 
>
</g>

<g fill="none" stroke="#000000" stroke-opacity="0.847059" stroke-width="1" stroke-linecap="square" stroke-linejoin="bevel" transform="matrix(1,0,0,1,308,412)"
font-family=".AppleSystemUIFont" font-size="24" font-weight="400" font-style="normal" 
>
<text fill="#000000" fill-opacity="0.847059" stroke="none" xml:space="preserve" x="0" y="20.2031" font-family=".AppleSystemUIFont" font-size="24" font-weight="400" font-style="normal" 
 >40</text>
</g>

<g fill="none" stroke="#000000" stroke-opacity="0.847059" stroke-width="1" stroke-linecap="square" stroke-linejoin="bevel" transform="matrix(1,0,0,1,308,412)"
font-family=".AppleSystemUIFont" font-size="24" font-weight="400" font-style="normal" 
>
</g>

<g fill="none" stroke="#000000" stroke-opacity="0.847059" stroke-width="1" stroke-linecap="square" stroke-linejoin="bevel" transform="matrix(1,0,0,1,0,0)"
font-family=".AppleSystemUIFont" font-size="24" font-weight="400" font-style="normal" 
>
</g>

<g fill="none" stroke="#000000" stroke-opacity="0.847059" stroke-width="1" stroke-linecap="square" stroke-linejoin="bevel" transform="matrix(1,0,0,1,385,412)"
font-family=".AppleSystemUIFont" font-size="24" font-weight="400" font-style="normal" 
>
<text fill="#000000" fill-opacity="0.847059" stroke="none" xml:space="preserve" x="0" y="20.2031" font-family=".AppleSystemUIFont" font-size="24" font-weight="400" font-style="normal" 
 >60</text>
</g>

<g fill="none" stroke="#000000" stroke-opacity="0.847059" stroke-width="1" stroke-linecap="square" stroke-linejoin="bevel" transform="matrix(1,0,0,1,385,412)"
font-family=".AppleSystemUIFont" font-size="24" font-weight="400" font-style="normal" 
>
</g>

<g fill="none" stroke="#000000" stroke-opacity="0.847059" stroke-width="1" stroke-linecap="square" stroke-linejoin="bevel" transform="matrix(1,0,0,1,0,0)"
font-family=".AppleSystemUIFont" font-size="24" font-weight="400" font-style="normal" 
>
</g>

<g fill="none" stroke="#000000" stroke-opacity="0.847059" stroke-width="1" stroke-linecap="square" stroke-linejoin="bevel" transform="matrix(1,0,0,1,463,412)"
font-family=".AppleSystemUIFont" font-size="24" font-weight="400" font-style="normal" 
>
<text fill="#000000" fill-opacity="0.847059" stroke="none" xml:space="preserve" x="0" y="20.2031" font-family=".AppleSystemUIFont" font-size="24" font-weight="400" font-style="normal" 
 >80</text>
</g>

<g fill="none" stroke="#000000" stroke-opacity="0.847059" stroke-width="1" stroke-linecap="square" stroke-linejoin="bevel" transform="matrix(1,0,0,1,463,412)"
font-family=".AppleSystemUIFont" font-size="24" font-weight="400" font-style="normal" 
>
</g>

<g fill="none" stroke="#000000" stroke-opacity="0.847059" stroke-width="1" stroke-linecap="square" stroke-linejoin="bevel" transform="matrix(1,0,0,1,0,0)"
font-family=".AppleSystemUIFont" font-size="24" font-weight="400" font-style="normal" 
>
</g>

<g fill="none" stroke="#000000" stroke-opacity="0.847059" stroke-width="1" stroke-linecap="square" stroke-linejoin="bevel" transform="matrix(1,0,0,1,536,412)"
font-family=".AppleSystemUIFont" font-size="24" font-weight="400" font-style="normal" 
>
<text fill="#000000" fill-opacity="0.847059" stroke="none" xml:space="preserve" x="0" y="20.2031" font-family=".AppleSystemUIFont" font-size="24" font-weight="400" font-style="normal" 
 >100</text>
</g>

<g fill="none" stroke="#000000" stroke-opacity="0.847059" stroke-width="1" stroke-linecap="square" stroke-linejoin="bevel" transform="matrix(1,0,0,1,536,412)"
font-family=".AppleSystemUIFont" font-size="24" font-weight="400" font-style="normal" 
>
</g>

<g fill="none" stroke="#000000" stroke-opacity="0.847059" stroke-width="1" stroke-linecap="square" stroke-linejoin="bevel" transform="matrix(1,0,0,1,0,0)"
font-family=".AppleSystemUIFont" font-size="24" font-weight="400" font-style="normal" 
>
</g>

<g fill="none" stroke="#000000" stroke-opacity="0.847059" stroke-width="1" stroke-linecap="square" stroke-linejoin="bevel" transform="matrix(1,0,0,1,615,412)"
font-family=".AppleSystemUIFont" font-size="24" font-weight="400" font-style="normal" 
>
<text fill="#000000" fill-opacity="0.847059" stroke="none" xml:space="preserve" x="0" y="20.2031" font-family=".AppleSystemUIFont" font-size="24" font-weight="400" font-style="normal" 
 >120</text>
</g>

<g fill="none" stroke="#000000" stroke-opacity="0.847059" stroke-width="1" stroke-linecap="square" stroke-linejoin="bevel" transform="matrix(1,0,0,1,615,412)"
font-family=".AppleSystemUIFont" font-size="24" font-weight="400" font-style="normal" 
>
</g>

<g fill="none" stroke="#000000" stroke-opacity="0.847059" stroke-width="1" stroke-linecap="square" stroke-linejoin="bevel" transform="matrix(1,0,0,1,0,0)"
font-family=".AppleSystemUIFont" font-size="24" font-weight="400" font-style="normal" 
>
</g>

<g fill="none" stroke="#000000" stroke-opacity="1" stroke-width="1" stroke-linecap="square" stroke-linejoin="bevel" transform="matrix(1,0,0,1,0,0)"
font-family=".AppleSystemUIFont" font-size="24" font-weight="400" font-style="normal" 
>
<polyline fill="none" vector-effect="none" points="110,395 110,402 " />
<polyline fill="none" vector-effect="none" points="149,395 149,402 " />
<polyline fill="none" vector-effect="none" points="188,395 188,402 " />
<polyline fill="none" vector-effect="none" points="227,395 227,402 " />
<polyline fill="none" vector-effect="none" points="266,395 266,402 " />
<polyline fill="none" vector-effect="none" points="305,395 305,402 " />
<polyline fill="none" vector-effect="none" points="344,395 344,402 " />
<polyline fill="none" vector-effect="none" points="382,395 382,402 " />
<polyline fill="none" vector-effect="none" points="421,395 421,402 " />
<polyline fill="none" vector-effect="none" points="460,395 460,402 " />
<polyline fill="none" vector-effect="none" points="499,395 499,402 " />
<polyline fill="none" vector-effect="none" points="538,395 538,402 " />
<polyline fill="none" vector-effect="none" points="577,395 577,402 " />
<polyline fill="none" vector-effect="none" points="616,395 616,402 " />
<polyline fill="none" vector-effect="none" points="130,395 130,402 " />
<polyline fill="none" vector-effect="none" points="208,395 208,402 " />
<polyline fill="none" vector-effect="none" points="285,395 285,402 " />
<polyline fill="none" vector-effect="none" points="363,395 363,402 " />
<polyline fill="none" vector-effect="none" points="441,395 441,402 " />
<polyline fill="none" vector-effect="none" points="518,395 518,402 " />
<polyline fill="none" vector-effect="none" points="596,395 596,402 " />
<polyline fill="none" vector-effect="none" points="91,395 91,407 " />
<polyline fill="none" vector-effect="none" points="169,395 169,407 " />
<polyline fill="none" vector-effect="none" points="246,395 246,407 " />
<polyline fill="none" vector-effect="none" points="324,395 324,407 " />
<polyline fill="none" vector-effect="none" points="402,395 402,407 " />
<polyline fill="none" vector-effect="none" points="480,395 480,407 " />
<polyline fill="none" vector-effect="none" points="557,395 557,407 " />
<polyline fill="none" vector-effect="none" points="635,395 635,407 " />
</g>

<g fill="none" stroke="#000000" stroke-opacity="1" stroke-width="1" stroke-linecap="square" stroke-linejoin="bevel" transform="matrix(1,0,0,1,0,0)"
font-family=".AppleSystemUIFont" font-size="24" font-weight="400" font-style="normal" 
>
<polyline fill="none" vector-effect="none" points="91,395 633,395 " />
</g>

<g fill="none" stroke="#000000" stroke-opacity="1" stroke-width="1" stroke-linecap="square" stroke-linejoin="bevel" transform="matrix(1,0,0,1,0,0)"
font-family=".AppleSystemUIFont" font-size="24" font-weight="400" font-style="normal" 
>
</g>

<g fill="none" stroke="#000000" stroke-opacity="1" stroke-width="1" stroke-linecap="square" stroke-linejoin="bevel" transform="matrix(1,0,0,1,0,0)"
font-family=".AppleSystemUIFont" font-size="17.3333" font-weight="400" font-style="normal" 
>
</g>

<g fill="#ffffff" fill-opacity="1" stroke="none" transform="matrix(1,0,0,1,0,0)"
font-family=".AppleSystemUIFont" font-size="17.3333" font-weight="400" font-style="normal" 
>
<rect x="91" y="16" width="544" height="377"/>
</g>

<g fill="none" stroke="#000000" stroke-opacity="1" stroke-width="1" stroke-linecap="square" stroke-linejoin="bevel" transform="matrix(1,0,0,1,0,0)"
font-family=".AppleSystemUIFont" font-size="17.3333" font-weight="400" font-style="normal" 
>
</g>

<g fill="none" stroke="#000000" stroke-opacity="1" stroke-width="1" stroke-linecap="square" stroke-linejoin="bevel" transform="matrix(1,0,0,1,0,0)"
font-family=".AppleSystemUIFont" font-size="17.3333" font-weight="400" font-style="normal" 
>
</g>

<g fill="none" stroke="#000000" stroke-opacity="1" stroke-width="1" stroke-linecap="square" stroke-linejoin="bevel" transform="matrix(1,0,0,1,0,0)"
font-family=".AppleSystemUIFont" font-size="17.3333" font-weight="400" font-style="normal" 
>
</g>

<g fill="none" stroke="#000000" stroke-opacity="1" stroke-width="1" stroke-linecap="square" stroke-linejoin="bevel" transform="matrix(1,0,0,1,0,0)"
font-family=".AppleSystemUIFont" font-size="17.3333" font-weight="400" font-style="normal" 
>
</g>

<g fill="#000000" fill-opacity="1" stroke="#000000" stroke-opacity="1" stroke-width="1" stroke-linecap="square" stroke-linejoin="bevel" transform="matrix(1,0,0,1,0,0)"
font-family=".AppleSystemUIFont" font-size="17.3333" font-weight="400" font-style="normal" 
>
<circle vector-effect="non-scaling-stroke" cx="169" cy="378" r="7"/>
<circle vector-effect="non-scaling-stroke" cx="246" cy="310" r="7"/>
<circle vector-effect="non-scaling-stroke" cx="324" cy="242" r="7"/>
<circle vector-effect="non-scaling-stroke" cx="402" cy="189" r="7"/>
<circle vector-effect="non-scaling-stroke" cx="480" cy="137" r="7"/>
<circle vector-effect="non-scaling-stroke" cx="557" cy="91" r="7"/>
</g>

<g fill="none" stroke="#000000" stroke-opacity="1" stroke-width="1" stroke-linecap="square" stroke-linejoin="bevel" transform="matrix(1,0,0,1,0,0)"
font-family=".AppleSystemUIFont" font-size="17.3333" font-weight="400" font-style="normal" 
>
</g>

<g fill="none" stroke="#000000" stroke-opacity="1" stroke-width="1" stroke-linecap="square" stroke-linejoin="bevel" transform="matrix(1,0,0,1,0,0)"
font-family=".AppleSystemUIFont" font-size="17.3333" font-weight="400" font-style="normal" 
>
</g>

<g fill="none" stroke="#000000" stroke-opacity="0.847059" stroke-width="1" stroke-linecap="round" stroke-linejoin="round" transform="matrix(1,0,0,1,0,0)"
font-family=".AppleSystemUIFont" font-size="17.3333" font-weight="400" font-style="normal" 
>
</g>

<g fill="none" stroke="#000000" stroke-opacity="1" stroke-width="1" stroke-linecap="square" stroke-linejoin="bevel" transform="matrix(1,0,0,1,0,0)"
font-family=".AppleSystemUIFont" font-size="17.3333" font-weight="400" font-style="normal" 
>
</g>

<g fill="none" stroke="#000000" stroke-opacity="1" stroke-width="1" stroke-linecap="square" stroke-linejoin="bevel" transform="matrix(1,0,0,1,0,0)"
font-family=".AppleSystemUIFont" font-size="17.3333" font-weight="400" font-style="normal" 
>
</g>
</g>
</svg>
